<?xml version="1.0" encoding="UTF-8"?>
<!DOCTYPE svg PUBLIC "-//W3C//DTD SVG 1.1//EN" "http://www.w3.org/Graphics/SVG/1.1/DTD/svg11.dtd">
<!-- Creator: CorelDRAW -->
<svg xmlns="http://www.w3.org/2000/svg" xml:space="preserve" width="2152px" height="1246px" style="shape-rendering:geometricPrecision; text-rendering:geometricPrecision; image-rendering:optimizeQuality; fill-rule:evenodd; clip-rule:evenodd"
viewBox="0 0 2358.29 1365.68"
 xmlns:xlink="http://www.w3.org/1999/xlink">
 <defs>
  <style type="text/css">
   <![CDATA[
    .str0 {stroke:#005678;stroke-width:0.986299}
    .str1 {stroke:#0093DD;stroke-width:0.986299}
    .fil1 {fill:none;fill-rule:nonzero}
    .fil0 {fill:#005678;fill-rule:nonzero}
    .fil2 {fill:#0093DD;fill-rule:nonzero}
    .fil3 {fill:#1F1A17;fill-rule:nonzero}
   ]]>
  </style>
 </defs>
 <g id="Ebene_x0020_1">
  <metadata id="CorelCorpID_0Corel-Layer"/>
  <polygon class="fil0" points="936.932,0.493149 1377.17,0.493149 1350.74,116.361 913.024,116.361 "/>
  <polygon class="fil1 str0" points="936.932,0.493149 1377.17,0.493149 1350.74,116.361 913.024,116.361 "/>
  <polygon class="fil0" points="887.001,232.355 1327.24,232.355 1300.81,348.223 863.063,348.223 "/>
  <polygon class="fil1 str0" points="887.001,232.355 1327.24,232.355 1300.81,348.223 863.063,348.223 "/>
  <polygon class="fil0" points="837.098,464.223 1277.33,464.223 1250.9,580.07 813.184,580.07 "/>
  <polygon class="fil1 str0" points="837.098,464.223 1277.33,464.223 1250.9,580.07 813.184,580.07 "/>
  <polygon class="fil2" points="1199.87,116.383 1640.13,116.383 1613.69,232.253 1175.98,232.253 "/>
  <polygon class="fil1 str1" points="1199.87,116.383 1640.13,116.383 1613.69,232.253 1175.98,232.253 "/>
  <polygon class="fil2" points="1150.76,348.223 1590.99,348.223 1564.56,464.092 1126.84,464.092 "/>
  <polygon class="fil1 str1" points="1150.76,348.223 1590.99,348.223 1564.56,464.092 1126.84,464.092 "/>
  <polygon class="fil2" points="1102.04,580.07 1542.27,580.07 1515.84,695.94 1078.12,695.94 "/>
  <polygon class="fil1 str1" points="1102.04,580.07 1542.27,580.07 1515.84,695.94 1078.12,695.94 "/>
  <path class="fil3" d="M10.1918 1059.59l40.0461 0 56.949 -129.183 0.467262 0 1.61924 129.183 40.5133 0 77.0918 -161.59 -33.5665 0 -57.1833 123.85 -0.467262 0 -0.69248 -123.85 -43.5253 0 -53.7028 123.85 -0.467262 0 -4.85901 -123.85 -32.4145 0 10.1918 161.59zm203.716 0l31.0205 0 25.469 -119.224 -31.0205 0 -25.469 119.224zm30.328 -140.988l31.0205 0 6.48601 -29.6343 -31.0218 0 -6.48472 29.6343zm36.339 140.988l31.0205 0 11.1185 -53.4763c3.93225,-19.2173 14.5848,-38.8928 36.5733,-38.8928 3.94002,0 8.33824,0.69248 11.811,1.84575l6.47954 -30.3203c-3.70703,-0.926758 -7.87227,-1.16104 -11.8045,-1.16104 -14.3583,0 -29.6356,12.2718 -35.1948,25.236l-0.459496 0 4.16653 -22.4558 -29.6356 0c-0.918992,5.55149 -1.84575,10.8778 -2.77251,15.9698l-21.3025 103.255zm99.7818 -96.5421l22.4558 0 -8.79773 40.2855c-2.0865,9.49151 -3.93225,18.517 -3.93225,27.782 0,22.9153 14.81,31.291 35.8795,31.291 5.32498,0 11.3437,-1.61924 16.67,-2.81652l5.32627 -24.075c-3.94002,1.61924 -9.49151,2.77251 -15.0508,2.77251 -6.94551,0 -11.8045,-4.39951 -11.8045,-11.5715 0,-4.6325 0.69248,-8.79773 1.38625,-11.578l11.345 -52.09 27.7807 0 4.85901 -22.6823 -27.782 0 7.63928 -35.42 -33.3335 10.8778 -5.32627 24.5423 -22.4558 0 -4.85901 22.6823zm182.426 -20.6035c-10.8842,-2.77251 -22.4558,-4.85901 -33.7995,-4.85901 -24.5436,0 -51.6318,9.9523 -51.6318,37.9673 0,29.8608 40.2868,31.713 40.2868,50.9303 0,9.72449 -10.8855,13.1972 -21.3038,13.1972 -12.0375,0 -20.8288,-4.39822 -29.6278,-9.26499l-6.75524 24.7765c11.3813,5.36122 23.886,7.21474 36.383,7.21474 26.6288,0 53.7106,-9.30253 53.7106,-40.323 0,-29.167 -40.279,-34.7263 -40.279,-49.7705 0,-9.49151 11.578,-12.0375 20.8365,-12.0375 8.79773,0 17.3638,2.546 25.4613,5.55149l6.719 -23.3825zm113.666 -0.225218c-8.33953,-2.54729 -19.4503,-4.63379 -31.0218,-4.63379 -42.8315,0 -70.3806,31.7143 -70.3806,73.3873 0,30.7875 19.9098,51.4338 50.6973,51.4338 10.1918,0 20.377,-0.926758 29.8685,-5.5955l3.47275 -24.5423c-8.10525,3.93872 -17.5968,6.01875 -25.236,6.01875 -21.296,0 -26.3945,-15.5103 -26.3945,-31.0218 0,-22.4558 13.8897,-45.604 38.6663,-45.604 8.56475,0 16.6635,2.0865 22.6823,6.01875l7.64576 -25.4613zm-0.934524 117.371l31.0218 0 12.7377 -59.9623c3.93225,-17.8233 11.8045,-37.966 33.3335,-37.966 9.95877,0 16.9043,6.71123 16.9043,16.67 0,8.79903 -1.85352,16.8965 -3.47275,25.0018l-11.578 56.2566 31.0205 0 12.5048 -57.8758c1.61924,-7.41277 3.93225,-16.9043 3.93225,-25.9285 0,-23.6155 -15.5103,-38.2003 -38.8928,-38.2003 -13.4238,0 -25.236,6.47954 -33.8008,14.3505l-0.459496 0 14.8178 -65.9733 -31.0283 0 -37.0406 173.627zm216.221 0l26.1615 0c2.78027,-22.4558 14.5848,-69.2208 14.5848,-85.1983 0,-28.0073 -22.4571,-36.8063 -46.2991,-36.8063 -13.8897,0 -27.3148,2.54729 -40.512,7.17979l-4.39951 24.7688c12.2718,-5.78577 25.4626,-9.25852 39.1271,-9.25852 10.8778,0 23.842,3.47275 23.842,15.5103 0,3.47275 0,6.94551 -0.926758,10.1853l-10.8778 0c-29.1748,0 -73.1608,3.00549 -73.1608,42.3655 0,21.9885 15.285,34.07 36.814,34.07 17.1295,0 27.782,-7.682 38.4255,-21.1058l0.467262 0 -3.24624 18.2892zm-42.825 -32.4145c0,-20.135 25.0018,-22.6888 40.0525,-22.6888l10.8778 0c-4.85901,19.216 -12.0375,35.1935 -35.187,35.1935 -7.87227,0 -15.7432,-4.16523 -15.7432,-12.5048zm112.512 32.4145l31.0218 0 20.3693 -96.5421 27.782 0 4.85771 -22.6823 -27.7807 0c3.01326,-12.5048 6.94551,-33.107 24.0828,-33.107 3.23848,0 6.71123,0.69248 9.49151,2.0865l7.17202 -23.1573c-5.09329,-1.61924 -12.0388,-3.00549 -19.2173,-3.00549 -36.1138,0 -46.2978,26.8553 -52.5508,57.1833l-24.075 0 -4.85901 22.6823 24.0763 0 -20.3706 96.5421zm88.6646 -96.5421l22.4558 0 -8.79903 40.2855c-2.0865,9.49151 -3.93225,18.517 -3.93225,27.782 0,22.9153 14.81,31.291 35.8795,31.291 5.32627,0 11.345,-1.61924 16.6713,-2.81652l5.32498 -24.075c-3.93872,1.61924 -9.49151,2.77251 -15.0508,2.77251 -6.94551,0 -11.8045,-4.39951 -11.8045,-11.5715 0,-4.6325 0.693774,-8.79773 1.38625,-11.578l11.345 -52.09 27.782 0 4.85901 -22.6823 -27.782 0 7.63799 -35.42 -33.3335 10.8778 -5.32498 24.5423 -22.4558 0 -4.85901 22.6823zm182.426 -20.6035c-10.8855,-2.77251 -22.4558,-4.85901 -33.8008,-4.85901 -24.5423,0 -51.6305,9.9523 -51.6305,37.9673 0,29.8608 40.2855,31.713 40.2855,50.9303 0,9.72449 -10.8842,13.1972 -21.3025,13.1972 -12.0375,0 -20.8288,-4.39822 -29.6278,-9.26499l-6.75524 24.7765c11.3813,5.36122 23.886,7.21474 36.383,7.21474 26.6288,0 53.7106,-9.30253 53.7106,-40.323 0,-29.167 -40.279,-34.7263 -40.279,-49.7705 0,-9.49151 11.578,-12.0375 20.8352,-12.0375 8.79903,0 17.3638,2.546 25.4626,5.55149l6.719 -23.3825zm18.75 117.146l31.0205 0 20.3693 -96.5421 27.782 0 4.85901 -22.6823 -27.782 0c3.01326,-12.5048 6.94551,-33.107 24.0828,-33.107 3.23977,0 6.71253,0.69248 9.49151,2.0865l7.17202 -23.1573c-5.09329,-1.61924 -12.0375,-3.00549 -19.2173,-3.00549 -36.1125,0 -46.2978,26.8553 -52.5495,57.1833l-24.0763 0 -4.85901 22.6823 24.0763 0 -20.3693 96.5421zm154.638 -167.843l-26.3893 0 -5.78447 26.8553 26.388 0 5.78577 -26.8553zm48.1578 0l-26.3958 0 -5.78577 26.8553 26.3893 0 5.79224 -26.8553zm-60.1966 146.54c-17.8233,0 -24.308,-12.264 -24.308,-28.0086 0,-21.529 12.2705,-48.6173 36.8128,-48.6173 18.2905,0 23.6168,12.9643 23.6168,28.4745 0,20.377 -12.0453,48.1513 -36.1216,48.1513zm13.891 -100.702c-40.0448,0 -70.6071,30.5623 -70.6071,70.3741 0,33.5743 20.3693,54.447 54.1701,54.447 42.1403,0 71.0743,-30.5973 71.0743,-72.5033 0,-32.874 -22.4558,-52.3178 -54.6373,-52.3178zm68.5206 122.005l31.0205 0 11.1185 -53.4763c3.93355,-19.2173 14.5848,-38.8928 36.5733,-38.8928 3.94002,0 8.33953,0.69248 11.8123,1.84575l6.47825 -30.3203c-3.70703,-0.926758 -7.87227,-1.16104 -11.8045,-1.16104 -14.3583,0 -29.6343,12.2718 -35.1935,25.236l-0.46079 0 4.16653 -22.4558 -29.6343 0c-0.920286,5.55149 -1.84704,10.8778 -2.77251,15.9698l-21.3038 103.255zm208.822 -173.627l-15.0508 68.5206c-9.72449,-11.112 -21.529,-16.8978 -36.8063,-16.8978 -40.5198,0 -59.9623,39.5866 -59.9623,75.2396 0,25.9298 12.73,49.5816 40.9793,49.5816 18.0563,0 29.6278,-7.44901 38.8928,-20.4133l0.459496 0 -3.01326 17.5968 28.9418 0c0.693774,-6.01875 2.546,-16.2105 4.39951,-26.3945l32.1816 -147.233 -31.0218 0zm-46.7651 75.6991c15.7368,0 22.4558,14.3505 22.4558,28.2415 0,21.9963 -13.4302,48.3843 -36.1125,48.3843 -15.285,0 -18.9908,-16.204 -18.9908,-28.2415 0,-17.8233 10.4183,-48.3843 32.6475,-48.3843zm190.292 47.9248c1.85222,-8.79903 3.00549,-17.5968 3.00549,-26.6288 0,-30.3216 -19.4425,-45.3723 -48.8438,-45.3723 -39.1271,0 -67.8346,35.6543 -67.8346,72.6936 0,35.42 23.156,52.1276 57.4163,52.1276 12.73,0 25.9285,-3.0495 37.966,-6.75524l3.93225 -24.5358c-11.5702,5.32627 -23.842,8.56475 -36.5733,8.56475 -21.3025,0 -33.107,-8.10525 -33.107,-30.0938l84.0386 0zm-79.8734 -21.3038c6.02005,-16.437 14.3583,-28.0073 33.5678,-28.0073 12.9643,0 19.6833,7.17202 19.6833,19.9098 0,2.77251 -0.232984,5.31851 -0.700246,8.09749l-52.5508 0zm94.6834 71.3073l31.0205 0 11.1185 -53.4763c3.93225,-19.2173 14.5835,-38.8928 36.5733,-38.8928 3.94002,0 8.33824,0.69248 11.811,1.84575l6.47825 -30.3203c-3.70574,-0.926758 -7.87097,-1.16104 -11.8032,-1.16104 -14.3583,0 -29.6356,12.2718 -35.1948,25.236l-0.459496 0 4.16653 -22.4558 -29.6356 0c-0.918992,5.55149 -1.84575,10.8778 -2.77251,15.9698l-21.3025 103.255zm226.411 -119.224l-31.0205 0 -12.7313 59.9558c-3.93872,17.8297 -11.8032,37.966 -33.34,37.966 -9.951,0 -16.8965,-6.71253 -16.8965,-16.6635 0,-8.79903 1.85222,-16.9043 3.47275,-25.0018l11.578 -56.2566 -31.0283 0 -12.4983 57.8758c-1.61924,7.40501 -3.93225,16.8965 -3.93225,25.9285 0,23.609 15.5116,38.2365 38.8928,38.2365 13.4251,0 25.2283,-6.52226 33.7943,-14.3945l0.465968 0 -2.0865 11.578 30.328 0c0.467262,-3.70574 1.61924,-9.95747 3.01326,-17.1295l21.9885 -102.095zm9.71802 119.224l31.0218 0 12.7377 -59.9623c3.93225,-17.8233 11.8045,-37.966 33.3335,-37.966 9.95877,0 16.9043,6.71123 16.9043,16.67 0,8.79903 -1.85352,16.8965 -3.47275,25.0018l-11.578 56.2566 31.0205 0 12.5048 -57.8758c1.61924,-7.41277 3.93225,-16.9043 3.93225,-25.9285 0,-23.6155 -15.5103,-38.2003 -38.8928,-38.2003 -13.4238,0 -25.236,6.47954 -33.8008,14.3505l-0.459496 0 2.07873 -11.5702 -30.328 0c-0.459496,3.69927 -1.61924,9.951 -3.00549,17.1295l-21.9963 102.095zm140.061 43.3285c15.2773,5.78577 31.4813,8.10655 47.684,8.10655 43.5266,0 60.4296,-25.469 68.0688,-64.3993l18.983 -89.5966c1.61924,-7.63928 3.00549,-13.4238 3.93225,-16.6635l-29.8608 0 -3.47275 17.3638c-7.41277,-12.5048 -20.6023,-20.144 -36.3468,-20.144 -38.6598,0 -60.4218,35.8808 -60.4218,71.5338 0,26.1628 12.497,50.4708 41.4388,50.4708 17.1295,0 32.1803,-8.33824 40.0461,-22.6888l0.465968 0c-7.41148,27.1245 -12.2705,50.0411 -45.1445,50.0411 -13.4238,0 -25.236,-4.16653 -37.5001,-9.25852l-7.87227 25.2347zm95.6101 -116.255c0,22.69 -10.1853,48.8516 -34.9605,48.8516 -13.8845,0 -19.6768,-12.2718 -19.6768,-26.6288 0,-17.8233 9.72449,-47.2245 32.1803,-47.2245 14.3505,0 22.4571,11.1107 22.4571,25.0018z"/>
  <path class="fil3" d="M226.368 1314.24l32.4145 0 14.124 -67.1421 12.264 0c17.5968,0 16.67,12.0375 20.377,29.1761l7.87097 37.966 34.0273 0 -15.5103 -65.0556c-2.08003,-8.79773 -7.63928,-14.3505 -16.437,-14.8165l0 -0.46079c26.3958,-0.465968 47.231,-15.2837 47.231,-43.058 0,-38.6663 -34.501,-38.2003 -64.3618,-38.2003l-38.199 0 -33.8008 161.591zm61.3485 -136.129l13.4315 0c13.1972,0 27.782,0 27.782,16.903 0,21.296 -21.0708,26.6223 -38.4333,26.6223l-11.8045 0 9.02424 -43.5253zm198.63 86.1238c1.85352,-8.79773 3.00549,-17.5968 3.00549,-26.6288 0,-30.3203 -19.4425,-45.371 -48.8438,-45.371 -39.1271,0 -67.8346,35.653 -67.8346,72.6936 0,35.42 23.156,52.1263 57.4163,52.1263 12.7313,0 25.9285,-3.0495 37.966,-6.75524l3.93225 -24.5345c-11.5702,5.32498 -23.842,8.56475 -36.572,8.56475 -21.3038,0 -33.1083,-8.10525 -33.1083,-30.0951l84.0386 0zm-79.8721 -21.3025c6.01875,-16.437 14.357,-28.0086 33.5665,-28.0086 12.9643,0 19.6833,7.17202 19.6833,19.9098 0,2.77251 -0.232984,5.31851 -0.700246,8.09878l-52.5495 0zm90.9828 114.636c15.2773,5.78577 31.4813,8.10525 47.684,8.10525 43.5266,0 60.4296,-25.469 68.0688,-64.3981l18.983 -89.5979c1.61924,-7.63799 3.00549,-13.4238 3.93225,-16.6635l-29.8608 0 -3.47275 17.3638c-7.41277,-12.5048 -20.6035,-20.1428 -36.3468,-20.1428 -38.6598,0 -60.4218,35.8795 -60.4218,71.5338 0,26.1615 12.497,50.4708 41.4388,50.4708 17.1295,0 32.1803,-8.33953 40.0448,-22.69l0.467262 0c-7.41277,27.1258 -12.2705,50.0411 -45.1445,50.0411 -13.4251,0 -25.236,-4.16523 -37.5001,-9.25852l-7.87227 25.236zm95.6088 -116.256c0,22.69 -10.184,48.8516 -34.9605,48.8516 -13.8833,0 -19.6755,-12.2705 -19.6755,-26.6288 0,-17.8233 9.72449,-47.2245 32.1803,-47.2245 14.3505,0 22.4558,11.112 22.4558,25.0018zm51.8506 72.9279l31.0205 0 25.469 -119.226 -31.0205 0 -25.469 119.226zm30.328 -140.988l31.0205 0 6.48601 -29.6356 -31.0205 0 -6.48601 29.6356zm97.6876 119.684c-17.8233,0 -24.3093,-12.264 -24.3093,-28.0073 0,-21.529 12.2718,-48.6186 36.814,-48.6186 18.2905,0 23.6155,12.9643 23.6155,28.4745 0,20.377 -12.044,48.1513 -36.1203,48.1513zm13.891 -100.701c-40.0461,0 -70.6071,30.561 -70.6071,70.3728 0,33.5743 20.3693,54.447 54.1701,54.447 42.139,0 71.0743,-30.5973 71.0743,-72.5033 0,-32.874 -22.4558,-52.3165 -54.6373,-52.3165zm68.5206 122.005l31.0205 0 12.739 -59.9623c3.93225,-17.8233 11.8032,-37.9673 33.3335,-37.9673 9.95877,0 16.903,6.71253 16.903,16.6713 0,8.79773 -1.85222,16.8965 -3.47275,25.0018l-11.578 56.2566 31.0218 0 12.5048 -57.8758c1.61924,-7.41277 3.93225,-16.9043 3.93225,-25.9285 0,-23.6168 -15.5103,-38.2003 -38.8928,-38.2003 -13.4251,0 -25.236,6.47825 -33.8008,14.3505l-0.459496 0 2.07873 -11.5715 -30.328 0c-0.459496,3.69927 -1.61924,9.9523 -3.00549,17.1308l-21.9963 102.095zm333.592 -157.192c-13.1972,-5.32627 -27.782,-7.17849 -41.906,-7.17849 -31.0205,0 -60.1888,14.8178 -60.1888,48.8438 0,43.0658 55.0968,38.4333 55.0968,67.6016 0,17.3638 -15.2773,25.2347 -30.7875,25.2347 -13.891,0 -27.0883,-5.32498 -39.5866,-11.1107l-8.33824 27.5478c14.5835,5.32627 30.561,9.06825 46.0713,9.06825 35.42,0 66.4418,-14.3932 66.4418,-53.9798 0,-44.9115 -55.0968,-43.2923 -55.0968,-69.2208 0,-13.891 15.5103,-18.5157 27.0818,-18.5157 11.811,0 24.0828,3.46499 33.5743,8.33176l7.63799 -26.6223zm15.2773 60.6483l22.4558 0 -8.79903 40.2868c-2.0865,9.49151 -3.93225,18.5157 -3.93225,27.782 0,22.9153 14.81,31.2897 35.8808,31.2897 5.32498,0 11.3437,-1.61924 16.67,-2.81522l5.32627 -24.0763c-3.94002,1.62053 -9.49151,2.77251 -15.0508,2.77251 -6.94551,0 -11.8045,-4.39951 -11.8045,-11.5702 0,-4.6325 0.69248,-8.79903 1.38625,-11.578l11.3437 -52.0913 27.782 0 4.85901 -22.6823 -27.782 0 7.63928 -35.42 -33.3335 10.8778 -5.32627 24.5423 -22.4558 0 -4.85901 22.6823zm219 -22.6823l-31.0205 0 -12.7313 59.9558c-3.94002,17.831 -11.8045,37.966 -33.3413,37.966 -9.951,0 -16.8965,-6.71123 -16.8965,-16.6622 0,-8.79903 1.85352,-16.9043 3.47275,-25.0031l11.578 -56.2566 -31.0283 0 -12.497 57.8771c-1.61924,7.40501 -3.93225,16.8965 -3.93225,25.9285 0,23.6077 15.5103,38.2353 38.8928,38.2353 13.4238,0 25.2283,-6.52226 33.793,-14.3932l0.467262 0 -2.0865 11.578 30.328 0c0.465968,-3.70703 1.61924,-9.95877 3.01326,-17.1308l21.9885 -102.095zm17.1295 22.6823l22.4571 0 -8.79903 40.2868c-2.0865,9.49151 -3.93225,18.5157 -3.93225,27.782 0,22.9153 14.81,31.2897 35.8795,31.2897 5.32627,0 11.345,-1.61924 16.67,-2.81522l5.32627 -24.0763c-3.94002,1.62053 -9.49151,2.77251 -15.0508,2.77251 -6.94551,0 -11.8045,-4.39951 -11.8045,-11.5702 0,-4.6325 0.693774,-8.79903 1.38625,-11.578l11.345 -52.0913 27.782 0 4.85771 -22.6823 -27.7807 0 7.63799 -35.42 -33.3335 10.8778 -5.32627 24.5423 -22.4558 0 -4.85901 22.6823zm92.3704 0l22.4558 0 -8.79903 40.2868c-2.0865,9.49151 -3.93225,18.5157 -3.93225,27.782 0,22.9153 14.81,31.2897 35.8808,31.2897 5.32498,0 11.3437,-1.61924 16.67,-2.81522l5.32627 -24.0763c-3.94002,1.62053 -9.49151,2.77251 -15.0508,2.77251 -6.94551,0 -11.8045,-4.39951 -11.8045,-11.5702 0,-4.6325 0.69248,-8.79903 1.38625,-11.578l11.3437 -52.0913 27.782 0 4.85901 -22.6823 -27.782 0 7.63928 -35.42 -33.3335 10.8778 -5.32627 24.5423 -22.4558 0 -4.85901 22.6823zm81.2583 139.872c15.2773,5.78577 31.4813,8.10525 47.684,8.10525 43.5253,0 60.4296,-25.469 68.0688,-64.3981l18.983 -89.5979c1.61924,-7.63799 3.00549,-13.4238 3.93225,-16.6635l-29.8608 0 -3.47275 17.3638c-7.41277,-12.5048 -20.6035,-20.1428 -36.3468,-20.1428 -38.6598,0 -60.4231,35.8795 -60.4231,71.5338 0,26.1615 12.4983,50.4708 41.4401,50.4708 17.1295,0 32.1803,-8.33953 40.0448,-22.69l0.467262 0c-7.41277,27.1258 -12.2718,50.0411 -45.1458,50.0411 -13.4238,0 -25.2347,-4.16523 -37.4988,-9.25852l-7.87227 25.236zm95.6088 -116.256c0,22.69 -10.184,48.8516 -34.9605,48.8516 -13.8833,0 -19.6755,-12.2705 -19.6755,-26.6288 0,-17.8233 9.72449,-47.2245 32.1803,-47.2245 14.3505,0 22.4558,11.112 22.4558,25.0018zm124.31 72.9279l26.1628 0c2.77898,-22.4558 14.5835,-69.2208 14.5835,-85.1983 0,-28.0086 -22.4558,-36.8063 -46.2978,-36.8063 -13.891,0 -27.3148,2.546 -40.512,7.17849l-4.39951 24.7688c12.2705,-5.78577 25.4613,-9.25852 39.1258,-9.25852 10.8778,0 23.842,3.47275 23.842,15.5116 0,3.47146 0,6.94422 -0.926758,10.184l-10.8778 0c-29.1748,0 -73.1595,3.00549 -73.1595,42.3655 0,21.9885 15.2837,34.07 36.8128,34.07 17.1308,0 27.782,-7.682 38.4268,-21.1058l0.465968 0 -3.24624 18.2905zm-42.825 -32.4145c0,-20.1363 25.0018,-22.69 40.0525,-22.69l10.8778 0c-4.85901,19.2173 -12.0375,35.1948 -35.1857,35.1948 -7.87227,0 -15.7445,-4.16653 -15.7445,-12.5048zm101.395 32.4145l31.0205 0 11.1185 -53.4776c3.93225,-19.216 14.5848,-38.8928 36.5733,-38.8928 3.94002,0 8.33824,0.693774 11.811,1.84575l6.47954 -30.3203c-3.70703,-0.926758 -7.87227,-1.15974 -11.8045,-1.15974 -14.3583,0 -29.6356,12.2705 -35.1948,25.2347l-0.459496 0 4.16653 -22.4558 -29.6356 0c-0.918992,5.55278 -1.84575,10.8778 -2.77251,15.971l-21.3025 103.255zm99.7818 -96.5434l22.4558 0 -8.79773 40.2868c-2.0865,9.49151 -3.93225,18.5157 -3.93225,27.782 0,22.9153 14.81,31.2897 35.8795,31.2897 5.32498,0 11.345,-1.61924 16.67,-2.81522l5.32627 -24.0763c-3.94002,1.62053 -9.49151,2.77251 -15.0508,2.77251 -6.94551,0 -11.8045,-4.39951 -11.8045,-11.5702 0,-4.6325 0.69248,-8.79903 1.38625,-11.578l11.345 -52.0913 27.7807 0 4.85901 -22.6823 -27.782 0 7.63928 -35.42 -33.3335 10.8778 -5.32627 24.5423 -22.4558 0 -4.85901 22.6823z"/>
 </g>
</svg>
