<?xml version="1.0" encoding="utf-8"?>
<!-- Generator: Adobe Illustrator 16.0.0, SVG Export Plug-In . SVG Version: 6.00 Build 0)  -->
<!DOCTYPE svg PUBLIC "-//W3C//DTD SVG 1.1//EN" "http://www.w3.org/Graphics/SVG/1.1/DTD/svg11.dtd">
<svg version="1.1" id="Ebene_1" xmlns="http://www.w3.org/2000/svg" xmlns:xlink="http://www.w3.org/1999/xlink" x="0px" y="0px"
	 width="878.955px" height="457.478px" viewBox="0 0 878.955 457.478" enable-background="new 0 0 878.955 457.478"
	 xml:space="preserve">
<g>
	<g>
		<polygon fill="#1A1A1A" points="133.955,292 133.955,303 29.955,303 29.955,225 133.955,225 133.955,236 152.955,236 152.955,206 
			10.955,206 10.955,322 152.955,322 152.955,292 		"/>
		<path fill="#1A1A1A" d="M153.476,324H11.54c-1.069,0-2.585-0.866-2.585-1.936V205.936c0-1.069,1.516-1.936,2.585-1.936h141.936
			c1.068,0,1.479,0.866,1.479,1.936v29.678c0,1.068-0.411,2.387-1.479,2.387H134.12c-1.068,0-2.165-1.318-2.165-2.387V227h-100v74
			h100v-8.613c0-1.068,1.097-2.387,2.165-2.387h19.355c1.068,0,1.479,1.318,1.479,2.387v29.678
			C154.955,323.134,154.544,324,153.476,324z M12.955,320h138v-26h-15v8.71c0,1.069-0.766,2.29-1.835,2.29H30.895
			c-1.068,0-1.939-1.221-1.939-2.29v-77.42c0-1.069,0.871-2.29,1.939-2.29H134.12c1.069,0,1.835,1.221,1.835,2.29V234h15v-26h-138
			V320z"/>
	</g>
	<g>
		<g>
			<polygon fill="#1A1A1A" points="189.955,206 189.955,236 208.955,236 208.955,225 311.955,225 311.955,236 331.955,236 
				331.955,206 			"/>
			<path fill="#1A1A1A" d="M331.97,238h-19.354c-1.069,0-2.66-1.318-2.66-2.387V227h-99v8.613c0,1.068-0.497,2.387-1.566,2.387
				h-19.354c-1.069,0-2.079-1.318-2.079-2.387v-29.678c0-1.069,1.01-1.936,2.079-1.936H331.97c1.069,0,1.985,0.866,1.985,1.936
				v29.678C333.955,236.682,333.039,238,331.97,238z M313.955,234h16v-26h-138v26h15v-8.71c0-1.069,1.365-2.29,2.434-2.29h103.227
				c1.069,0,1.34,1.221,1.34,2.29V234z"/>
		</g>
		<g>
			<polygon fill="#1A1A1A" points="311.955,303 208.955,303 208.955,292 189.955,292 189.955,322 331.955,322 331.955,292 
				311.955,292 			"/>
			<path fill="#1A1A1A" d="M331.97,324H190.034c-1.069,0-2.079-0.866-2.079-1.936v-29.678c0-1.068,1.01-2.387,2.079-2.387h19.354
				c1.069,0,1.566,1.318,1.566,2.387V301h99v-8.613c0-1.068,1.591-2.387,2.66-2.387h19.354c1.069,0,1.985,1.318,1.985,2.387v29.678
				C333.955,323.134,333.039,324,331.97,324z M191.955,320h138v-26h-16v8.71c0,1.069-0.271,2.29-1.34,2.29H209.389
				c-1.068,0-2.434-1.221-2.434-2.29V294h-15V320z"/>
		</g>
	</g>
	<g>
		<rect x="99.955" y="254" fill="#1A1A1A" width="142" height="20"/>
		<path fill="#1A1A1A" d="M243.955,273.064c0,1.069-0.867,1.936-1.936,1.936H99.891c-1.069,0-1.936-0.866-1.936-1.936v-19.129
			c0-1.069,0.867-1.936,1.936-1.936H242.02c1.069,0,1.936,0.866,1.936,1.936V273.064z M101.955,272h138v-16h-138V272z"/>
	</g>
	<g>
		<rect x="278.955" y="254" fill="#1A1A1A" width="142" height="20"/>
		<path fill="#1A1A1A" d="M422.955,273.064c0,1.069-0.866,1.936-1.936,1.936H278.891c-1.069,0-1.936-0.866-1.936-1.936v-19.129
			c0-1.069,0.867-1.936,1.936-1.936H421.02c1.069,0,1.936,0.866,1.936,1.936V273.064z M280.955,272h138v-16h-138V272z"/>
	</g>
	<g>
		<g>
			<polygon fill="#1A1A1A" points="368.955,206 368.955,236 387.955,236 387.955,225 490.955,225 490.955,236 510.955,236 
				510.955,206 			"/>
			<path fill="#1A1A1A" d="M510.97,238h-19.354c-1.069,0-2.66-1.318-2.66-2.387V227h-99v8.613c0,1.068-0.497,2.387-1.566,2.387
				h-19.354c-1.069,0-2.079-1.318-2.079-2.387v-29.678c0-1.069,1.01-1.936,2.079-1.936H510.97c1.069,0,1.985,0.866,1.985,1.936
				v29.678C512.955,236.682,512.039,238,510.97,238z M492.955,234h16v-26h-138v26h15v-8.71c0-1.069,1.365-2.29,2.434-2.29h103.227
				c1.069,0,1.34,1.221,1.34,2.29V234z"/>
		</g>
		<g>
			<polygon fill="#1A1A1A" points="490.955,303 387.955,303 387.955,292 368.955,292 368.955,322 510.955,322 510.955,292 
				490.955,292 			"/>
			<path fill="#1A1A1A" d="M510.97,324H369.034c-1.069,0-2.079-0.866-2.079-1.936v-29.678c0-1.068,1.01-2.387,2.079-2.387h19.354
				c1.069,0,1.566,1.318,1.566,2.387V301h99v-8.613c0-1.068,1.591-2.387,2.66-2.387h19.354c1.069,0,1.985,1.318,1.985,2.387v29.678
				C512.955,323.134,512.039,324,510.97,324z M370.955,320h138v-26h-16v8.71c0,1.069-0.271,2.29-1.34,2.29H388.389
				c-1.068,0-2.434-1.221-2.434-2.29V294h-15V320z"/>
		</g>
	</g>
	<g>
		<g>
			<polygon fill="#1A1A1A" points="547.955,206 547.955,236 566.955,236 566.955,225 669.955,225 669.955,236 689.955,236 
				689.955,206 			"/>
			<path fill="#1A1A1A" d="M689.97,238h-19.354c-1.069,0-2.66-1.318-2.66-2.387V227h-99v8.613c0,1.068-0.497,2.387-1.566,2.387
				h-19.354c-1.069,0-2.079-1.318-2.079-2.387v-29.678c0-1.069,1.01-1.936,2.079-1.936H689.97c1.069,0,1.985,0.866,1.985,1.936
				v29.678C691.955,236.682,691.039,238,689.97,238z M671.955,234h16v-26h-138v26h15v-8.71c0-1.069,1.365-2.29,2.434-2.29h103.227
				c1.069,0,1.34,1.221,1.34,2.29V234z"/>
		</g>
		<g>
			<polygon fill="#1A1A1A" points="669.955,303 566.955,303 566.955,292 547.955,292 547.955,322 689.955,322 689.955,292 
				669.955,292 			"/>
			<path fill="#1A1A1A" d="M689.97,324H548.034c-1.069,0-2.079-0.866-2.079-1.936v-29.678c0-1.068,1.01-2.387,2.079-2.387h19.354
				c1.069,0,1.566,1.318,1.566,2.387V301h99v-8.613c0-1.068,1.591-2.387,2.66-2.387h19.354c1.069,0,1.985,1.318,1.985,2.387v29.678
				C691.955,323.134,691.039,324,689.97,324z M549.955,320h138v-26h-16v8.71c0,1.069-0.271,2.29-1.34,2.29H567.389
				c-1.068,0-2.434-1.221-2.434-2.29V294h-15V320z"/>
		</g>
	</g>
	<g>
		<rect x="457.955" y="254" fill="#1A1A1A" width="142" height="20"/>
		<path fill="#1A1A1A" d="M601.955,273.064c0,1.069-0.866,1.936-1.936,1.936H457.891c-1.069,0-1.936-0.866-1.936-1.936v-19.129
			c0-1.069,0.866-1.936,1.936-1.936H600.02c1.069,0,1.936,0.866,1.936,1.936V273.064z M459.955,272h138v-16h-138V272z"/>
	</g>
	<g>
		<path fill="#1A1A1A" d="M726.955,236v-30h142v116h-142v-30h19v11h103v-78h-103v11H726.955z"/>
		<path fill="#1A1A1A" d="M869.249,324H727.313c-1.068,0-2.358-0.866-2.358-1.936v-29.678c0-1.068,1.29-2.387,2.358-2.387h19.355
			c1.069,0,1.286,1.318,1.286,2.387V301h100v-74h-100v8.613c0,1.068-0.217,2.387-1.286,2.387h-19.355
			c-1.068,0-2.358-1.318-2.358-2.387v-29.678c0-1.069,1.29-1.936,2.358-1.936h141.936c1.069,0,1.706,0.866,1.706,1.936v116.129
			C870.955,323.134,870.318,324,869.249,324z M728.955,320h138V208h-138v26h15v-8.71c0-1.069,1.645-2.29,2.714-2.29h103.226
			c1.069,0,1.061,1.221,1.061,2.29v77.42c0,1.069,0.009,2.29-1.061,2.29H746.669c-1.069,0-2.714-1.221-2.714-2.29V294h-15V320z"/>
	</g>
	<g>
		<rect x="637.955" y="254" fill="#1A1A1A" width="142" height="20"/>
		<path fill="#1A1A1A" d="M781.955,273.064c0,1.069-0.866,1.936-1.936,1.936H637.891c-1.069,0-1.936-0.866-1.936-1.936v-19.129
			c0-1.069,0.866-1.936,1.936-1.936H780.02c1.069,0,1.936,0.866,1.936,1.936V273.064z M639.955,272h138v-16h-138V272z"/>
	</g>
</g>
<line fill="#1A1A1A" stroke="#1A1A1A" stroke-miterlimit="10" x1="42.455" y1="444" x2="42.455" y2="312"/>
<line fill="#1A1A1A" stroke="#1A1A1A" stroke-miterlimit="10" x1="409.455" y1="444" x2="409.455" y2="312"/>
<line fill="#1A1A1A" stroke="#1A1A1A" stroke-miterlimit="10" x1="755.455" y1="444" x2="755.455" y2="312"/>
<g>
	<path fill="#1A1A1A" d="M56.433,443.824c-0.108-0.116-0.162-0.265-0.162-0.445v-17.631c0-0.198,0.054-0.355,0.162-0.473
		s0.252-0.176,0.432-0.176h6.831c2.034,0,3.632,0.491,4.792,1.472c1.161,0.981,1.742,2.408,1.742,4.279
		c0,1.873-0.581,3.294-1.742,4.267c-1.161,0.972-2.758,1.458-4.792,1.458h-4.86v6.804c0,0.181-0.059,0.329-0.175,0.445
		c-0.117,0.117-0.266,0.176-0.446,0.176h-1.35C56.685,444,56.541,443.941,56.433,443.824z M63.561,434.388
		c2.718,0,4.077-1.179,4.077-3.537c0-1.151-0.338-2.033-1.013-2.646c-0.675-0.611-1.697-0.918-3.064-0.918h-4.725v7.101H63.561z"/>
	<path fill="#1A1A1A" d="M73.402,443.824c-0.118-0.116-0.176-0.265-0.176-0.445v-12.771c0-0.18,0.058-0.333,0.176-0.459
		c0.117-0.126,0.265-0.189,0.445-0.189h1.134c0.198,0,0.355,0.059,0.473,0.176c0.117,0.117,0.176,0.274,0.176,0.473v1.188
		c0.738-1.224,1.988-1.836,3.753-1.836h1.053c0.198,0,0.351,0.054,0.459,0.162s0.162,0.261,0.162,0.459v0.999
		c0,0.18-0.054,0.328-0.162,0.445s-0.261,0.176-0.459,0.176h-1.539c-0.99,0-1.769,0.288-2.335,0.864s-0.851,1.358-0.851,2.349v7.965
		c0,0.181-0.063,0.329-0.189,0.445c-0.126,0.117-0.279,0.176-0.459,0.176h-1.215C73.667,444,73.519,443.941,73.402,443.824z"/>
	<path fill="#1A1A1A" d="M84.229,442.596c-1.071-1.115-1.643-2.601-1.714-4.455l-0.027-1.16l0.027-1.161
		c0.072-1.854,0.652-3.339,1.741-4.455c1.089-1.116,2.605-1.674,4.55-1.674c1.944,0,3.46,0.558,4.549,1.674
		c1.089,1.116,1.669,2.601,1.742,4.455c0.036,0.396,0.054,0.782,0.054,1.161c0,0.378-0.018,0.765-0.054,1.16
		c-0.072,1.854-0.644,3.34-1.715,4.455c-1.071,1.116-2.597,1.674-4.576,1.674C86.825,444.27,85.299,443.712,84.229,442.596z
		 M91.545,441.151c0.675-0.729,1.04-1.777,1.094-3.146c0.018-0.18,0.027-0.521,0.027-1.025s-0.009-0.847-0.027-1.026
		c-0.054-1.368-0.418-2.417-1.094-3.146c-0.675-0.729-1.589-1.094-2.74-1.094c-1.152,0-2.065,0.364-2.741,1.094
		c-0.675,0.729-1.04,1.777-1.093,3.146l-0.027,1.026l0.027,1.025c0.054,1.368,0.418,2.417,1.093,3.146
		c0.675,0.729,1.588,1.094,2.741,1.094C89.957,442.245,90.871,441.881,91.545,441.151z"/>
	<path fill="#1A1A1A" d="M100.658,449.184c-0.9-0.504-1.535-1.08-1.903-1.728c-0.369-0.648-0.554-1.206-0.554-1.674
		c0-0.162,0.063-0.302,0.189-0.419s0.27-0.175,0.432-0.175h1.188c0.162,0,0.297,0.04,0.405,0.121
		c0.108,0.081,0.198,0.229,0.27,0.445c0.503,1.44,1.647,2.16,3.429,2.16c1.35,0,2.349-0.288,2.997-0.864s0.972-1.593,0.972-3.051
		v-1.863c-1.044,1.333-2.502,1.998-4.374,1.998c-1.908,0-3.334-0.611-4.28-1.836c-0.945-1.224-1.444-2.771-1.499-4.644l-0.027-0.756
		l0.027-0.729c0.054-1.854,0.554-3.397,1.499-4.631c0.945-1.232,2.372-1.849,4.28-1.849c1.89,0,3.366,0.692,4.428,2.078v-1.16
		c0-0.18,0.059-0.333,0.176-0.459c0.117-0.126,0.265-0.189,0.445-0.189h1.161c0.18,0,0.328,0.063,0.445,0.189
		s0.176,0.279,0.176,0.459v13.095c0,4.158-2.097,6.237-6.291,6.237C102.754,449.94,101.558,449.688,100.658,449.184z
		 M107.043,440.801c0.639-0.819,0.985-1.805,1.04-2.957c0.018-0.162,0.027-0.477,0.027-0.944c0-0.45-0.009-0.757-0.027-0.918
		c-0.054-1.152-0.401-2.138-1.04-2.957c-0.639-0.818-1.589-1.229-2.849-1.229c-1.296,0-2.237,0.41-2.821,1.229
		c-0.585,0.819-0.905,1.877-0.958,3.173l-0.027,0.702l0.027,0.729c0.054,1.296,0.373,2.354,0.958,3.173
		c0.584,0.819,1.525,1.229,2.821,1.229C105.455,442.029,106.404,441.62,107.043,440.801z"/>
	<path fill="#1A1A1A" d="M114.792,443.824c-0.118-0.116-0.176-0.265-0.176-0.445v-12.771c0-0.18,0.058-0.333,0.176-0.459
		c0.117-0.126,0.265-0.189,0.445-0.189h1.134c0.198,0,0.355,0.059,0.473,0.176c0.117,0.117,0.176,0.274,0.176,0.473v1.188
		c0.738-1.224,1.988-1.836,3.753-1.836h1.053c0.198,0,0.351,0.054,0.459,0.162s0.162,0.261,0.162,0.459v0.999
		c0,0.18-0.054,0.328-0.162,0.445s-0.261,0.176-0.459,0.176h-1.539c-0.99,0-1.769,0.288-2.335,0.864s-0.851,1.358-0.851,2.349v7.965
		c0,0.181-0.063,0.329-0.189,0.445c-0.126,0.117-0.279,0.176-0.459,0.176h-1.215C115.057,444,114.909,443.941,114.792,443.824z"/>
	<path fill="#1A1A1A" d="M125.997,443.73c-0.748-0.36-1.341-0.851-1.782-1.472c-0.441-0.621-0.662-1.31-0.662-2.065
		c0-1.188,0.486-2.16,1.458-2.916c0.972-0.756,2.295-1.26,3.969-1.513l4.05-0.566v-0.783c0-1.854-1.071-2.781-3.213-2.781
		c-0.828,0-1.494,0.167-1.998,0.5s-0.873,0.725-1.107,1.174c-0.072,0.181-0.148,0.302-0.229,0.365
		c-0.081,0.062-0.194,0.094-0.337,0.094h-1.053c-0.162,0-0.302-0.058-0.418-0.175c-0.117-0.117-0.175-0.257-0.175-0.419
		c0-0.414,0.193-0.896,0.58-1.444s0.986-1.026,1.796-1.431c0.81-0.405,1.799-0.607,2.97-0.607c2.016,0,3.46,0.468,4.333,1.403
		c0.873,0.937,1.31,2.106,1.31,3.51v8.775c0,0.181-0.059,0.329-0.175,0.445c-0.118,0.117-0.266,0.176-0.446,0.176h-1.188
		c-0.18,0-0.324-0.059-0.432-0.176c-0.108-0.116-0.162-0.265-0.162-0.445v-1.188c-0.396,0.594-0.972,1.089-1.728,1.484
		s-1.728,0.594-2.916,0.594C127.558,444.27,126.744,444.09,125.997,443.73z M131.896,441.138c0.756-0.773,1.134-1.898,1.134-3.375
		v-0.756l-3.159,0.459c-1.296,0.181-2.277,0.486-2.943,0.918c-0.666,0.433-0.999,0.973-0.999,1.62c0,0.738,0.301,1.306,0.905,1.701
		c0.603,0.396,1.318,0.594,2.146,0.594C130.168,442.299,131.14,441.912,131.896,441.138z"/>
	<path fill="#1A1A1A" d="M139.578,443.824c-0.118-0.116-0.176-0.265-0.176-0.445v-12.798c0-0.18,0.058-0.328,0.176-0.445
		c0.117-0.117,0.265-0.176,0.445-0.176h1.134c0.18,0,0.324,0.059,0.432,0.176s0.162,0.266,0.162,0.445v0.918
		c0.972-1.206,2.286-1.809,3.942-1.809c1.98,0,3.384,0.828,4.212,2.483c0.432-0.756,1.048-1.358,1.85-1.809
		c0.801-0.45,1.696-0.675,2.687-0.675c1.476,0,2.682,0.504,3.618,1.512c0.936,1.008,1.404,2.466,1.404,4.374v7.803
		c0,0.181-0.059,0.329-0.175,0.445c-0.117,0.117-0.266,0.176-0.446,0.176h-1.161c-0.18,0-0.329-0.059-0.446-0.176
		c-0.117-0.116-0.175-0.265-0.175-0.445v-7.56c0-1.44-0.297-2.471-0.891-3.092c-0.594-0.621-1.377-0.932-2.349-0.932
		c-0.864,0-1.606,0.32-2.228,0.959c-0.621,0.639-0.931,1.66-0.931,3.064v7.56c0,0.181-0.059,0.329-0.176,0.445
		c-0.117,0.117-0.266,0.176-0.445,0.176h-1.188c-0.18,0-0.329-0.059-0.446-0.176c-0.117-0.116-0.175-0.265-0.175-0.445v-7.56
		c0-1.422-0.311-2.448-0.932-3.078s-1.39-0.945-2.309-0.945c-0.864,0-1.606,0.315-2.227,0.945c-0.621,0.63-0.932,1.646-0.932,3.051
		v7.587c0,0.181-0.059,0.329-0.176,0.445c-0.117,0.117-0.266,0.176-0.445,0.176h-1.188C139.843,444,139.694,443.941,139.578,443.824
		z"/>
	<path fill="#1A1A1A" d="M163.553,443.824c-0.118-0.116-0.176-0.265-0.176-0.445v-12.798c0-0.18,0.058-0.328,0.176-0.445
		c0.117-0.117,0.265-0.176,0.445-0.176h1.134c0.18,0,0.324,0.059,0.432,0.176s0.162,0.266,0.162,0.445v0.918
		c0.972-1.206,2.286-1.809,3.942-1.809c1.98,0,3.384,0.828,4.212,2.483c0.432-0.756,1.048-1.358,1.85-1.809
		c0.801-0.45,1.696-0.675,2.687-0.675c1.476,0,2.682,0.504,3.618,1.512c0.936,1.008,1.404,2.466,1.404,4.374v7.803
		c0,0.181-0.059,0.329-0.175,0.445c-0.117,0.117-0.266,0.176-0.446,0.176h-1.161c-0.18,0-0.329-0.059-0.446-0.176
		c-0.117-0.116-0.175-0.265-0.175-0.445v-7.56c0-1.44-0.297-2.471-0.891-3.092c-0.594-0.621-1.377-0.932-2.349-0.932
		c-0.864,0-1.606,0.32-2.228,0.959c-0.621,0.639-0.931,1.66-0.931,3.064v7.56c0,0.181-0.059,0.329-0.176,0.445
		c-0.117,0.117-0.266,0.176-0.445,0.176h-1.188c-0.18,0-0.329-0.059-0.446-0.176c-0.117-0.116-0.175-0.265-0.175-0.445v-7.56
		c0-1.422-0.311-2.448-0.932-3.078s-1.39-0.945-2.309-0.945c-0.864,0-1.606,0.315-2.227,0.945c-0.621,0.63-0.932,1.646-0.932,3.051
		v7.587c0,0.181-0.059,0.329-0.176,0.445c-0.117,0.117-0.266,0.176-0.445,0.176h-1.188C163.818,444,163.67,443.941,163.553,443.824z
		"/>
	<path fill="#1A1A1A" d="M187.312,427.139c-0.117-0.117-0.175-0.266-0.175-0.445v-1.404c0-0.18,0.058-0.333,0.175-0.459
		s0.266-0.189,0.446-0.189h1.593c0.18,0,0.333,0.063,0.459,0.189s0.189,0.279,0.189,0.459v1.404c0,0.18-0.063,0.328-0.189,0.445
		s-0.279,0.176-0.459,0.176h-1.593C187.578,427.314,187.43,427.256,187.312,427.139z M187.529,443.824
		c-0.118-0.116-0.176-0.265-0.176-0.445v-12.798c0-0.18,0.058-0.328,0.176-0.445c0.117-0.117,0.265-0.176,0.445-0.176h1.188
		c0.18,0,0.328,0.059,0.445,0.176s0.176,0.266,0.176,0.445v12.798c0,0.181-0.059,0.329-0.176,0.445
		c-0.117,0.117-0.266,0.176-0.445,0.176h-1.188C187.794,444,187.646,443.941,187.529,443.824z"/>
	<path fill="#1A1A1A" d="M194.994,442.556c-1.098-1.143-1.701-2.704-1.809-4.685l-0.027-0.918l0.027-0.892
		c0.108-1.943,0.711-3.491,1.809-4.644c1.098-1.151,2.565-1.728,4.401-1.728c1.98,0,3.514,0.63,4.604,1.89
		c1.089,1.26,1.634,2.97,1.634,5.13v0.486c0,0.18-0.059,0.328-0.176,0.445c-0.117,0.117-0.266,0.176-0.445,0.176h-9.369v0.242
		c0.054,1.171,0.414,2.17,1.08,2.997c0.666,0.828,1.548,1.242,2.646,1.242c0.846,0,1.534-0.166,2.065-0.499
		c0.531-0.333,0.932-0.68,1.202-1.04c0.162-0.216,0.288-0.346,0.378-0.392c0.09-0.044,0.243-0.067,0.459-0.067h1.188
		c0.162,0,0.301,0.045,0.418,0.135c0.117,0.091,0.175,0.208,0.175,0.352c0,0.396-0.243,0.873-0.729,1.431
		c-0.486,0.559-1.174,1.04-2.065,1.444c-0.891,0.405-1.913,0.607-3.064,0.607C197.559,444.27,196.092,443.699,194.994,442.556z
		 M203.175,435.981V435.9c0-1.26-0.342-2.286-1.026-3.078s-1.602-1.188-2.754-1.188c-1.17,0-2.088,0.396-2.754,1.188
		c-0.666,0.792-0.999,1.818-0.999,3.078v0.081H203.175z"/>
	<path fill="#1A1A1A" d="M209.102,443.824c-0.118-0.116-0.176-0.265-0.176-0.445v-12.771c0-0.18,0.058-0.333,0.176-0.459
		c0.117-0.126,0.265-0.189,0.445-0.189h1.134c0.198,0,0.355,0.059,0.473,0.176c0.117,0.117,0.176,0.274,0.176,0.473v1.188
		c0.738-1.224,1.988-1.836,3.753-1.836h1.053c0.198,0,0.351,0.054,0.459,0.162s0.162,0.261,0.162,0.459v0.999
		c0,0.18-0.054,0.328-0.162,0.445s-0.261,0.176-0.459,0.176h-1.539c-0.99,0-1.769,0.288-2.335,0.864s-0.851,1.358-0.851,2.349v7.965
		c0,0.181-0.063,0.329-0.189,0.445c-0.126,0.117-0.279,0.176-0.459,0.176h-1.215C209.367,444,209.218,443.941,209.102,443.824z"/>
	<path fill="#1A1A1A" d="M220.347,442.609c-0.936-1.106-1.404-2.578-1.404-4.414v-7.614c0-0.18,0.058-0.328,0.175-0.445
		c0.117-0.117,0.266-0.176,0.446-0.176h1.242c0.18,0,0.328,0.059,0.446,0.176c0.117,0.117,0.175,0.266,0.175,0.445v7.479
		c0,2.736,1.188,4.104,3.564,4.104c1.152,0,2.065-0.364,2.741-1.094c0.675-0.729,1.012-1.732,1.012-3.011v-7.479
		c0-0.18,0.058-0.328,0.176-0.445c0.117-0.117,0.265-0.176,0.445-0.176h1.242c0.18,0,0.328,0.059,0.445,0.176
		c0.117,0.117,0.175,0.266,0.175,0.445v12.798c0,0.181-0.059,0.329-0.175,0.445c-0.117,0.117-0.266,0.176-0.445,0.176h-1.161
		c-0.18,0-0.329-0.059-0.446-0.176c-0.117-0.116-0.175-0.265-0.175-0.445v-1.215c-0.522,0.702-1.134,1.229-1.836,1.579
		c-0.702,0.352-1.593,0.526-2.673,0.526C222.605,444.27,221.282,443.717,220.347,442.609z"/>
	<path fill="#1A1A1A" d="M235.453,443.824c-0.118-0.116-0.176-0.265-0.176-0.445v-12.798c0-0.18,0.058-0.328,0.176-0.445
		c0.117-0.117,0.265-0.176,0.445-0.176h1.161c0.198,0,0.351,0.054,0.459,0.162s0.162,0.261,0.162,0.459v1.188
		c0.54-0.665,1.165-1.179,1.876-1.538c0.71-0.36,1.597-0.54,2.659-0.54c1.728,0,3.069,0.553,4.023,1.66
		c0.954,1.106,1.431,2.569,1.431,4.388v7.641c0,0.181-0.059,0.329-0.175,0.445c-0.118,0.117-0.266,0.176-0.446,0.176h-1.242
		c-0.18,0-0.329-0.059-0.446-0.176c-0.117-0.116-0.175-0.265-0.175-0.445V435.9c0-1.297-0.315-2.305-0.945-3.024
		s-1.53-1.08-2.7-1.08c-1.152,0-2.07,0.364-2.754,1.094c-0.685,0.729-1.026,1.732-1.026,3.011v7.479
		c0,0.181-0.059,0.329-0.175,0.445c-0.117,0.117-0.266,0.176-0.445,0.176h-1.242C235.718,444,235.57,443.941,235.453,443.824z"/>
	<path fill="#1A1A1A" d="M253.691,449.184c-0.9-0.504-1.535-1.08-1.903-1.728c-0.369-0.648-0.554-1.206-0.554-1.674
		c0-0.162,0.063-0.302,0.189-0.419s0.27-0.175,0.432-0.175h1.188c0.162,0,0.297,0.04,0.405,0.121
		c0.108,0.081,0.198,0.229,0.27,0.445c0.503,1.44,1.647,2.16,3.429,2.16c1.35,0,2.349-0.288,2.997-0.864s0.972-1.593,0.972-3.051
		v-1.863c-1.044,1.333-2.502,1.998-4.374,1.998c-1.908,0-3.334-0.611-4.28-1.836c-0.945-1.224-1.444-2.771-1.499-4.644l-0.027-0.756
		l0.027-0.729c0.054-1.854,0.554-3.397,1.499-4.631c0.945-1.232,2.372-1.849,4.28-1.849c1.89,0,3.366,0.692,4.428,2.078v-1.16
		c0-0.18,0.059-0.333,0.176-0.459c0.117-0.126,0.265-0.189,0.445-0.189h1.161c0.18,0,0.328,0.063,0.445,0.189
		s0.176,0.279,0.176,0.459v13.095c0,4.158-2.097,6.237-6.291,6.237C255.788,449.94,254.591,449.688,253.691,449.184z
		 M260.077,440.801c0.639-0.819,0.985-1.805,1.04-2.957c0.018-0.162,0.027-0.477,0.027-0.944c0-0.45-0.009-0.757-0.027-0.918
		c-0.054-1.152-0.401-2.138-1.04-2.957c-0.639-0.818-1.589-1.229-2.849-1.229c-1.296,0-2.237,0.41-2.821,1.229
		c-0.585,0.819-0.905,1.877-0.958,3.173l-0.027,0.702l0.027,0.729c0.054,1.296,0.373,2.354,0.958,3.173
		c0.584,0.819,1.525,1.229,2.821,1.229C258.488,442.029,259.438,441.62,260.077,440.801z"/>
	<path fill="#1A1A1A" d="M424.289,442.326c-1.296-1.296-1.989-3.051-2.079-5.266c-0.018-0.539-0.026-1.386-0.026-2.537
		c0-1.17,0.009-2.017,0.026-2.538c0.072-2.196,0.761-3.938,2.065-5.225s3.128-1.931,5.468-1.931c1.584,0,2.925,0.288,4.023,0.864
		c1.098,0.576,1.926,1.265,2.483,2.065s0.854,1.543,0.892,2.228v0.054c0,0.145-0.06,0.266-0.176,0.364
		c-0.117,0.1-0.248,0.148-0.392,0.148h-1.512c-0.162,0-0.284-0.035-0.365-0.107s-0.157-0.207-0.229-0.405
		c-0.288-0.846-0.819-1.557-1.593-2.133c-0.774-0.576-1.818-0.864-3.132-0.864c-1.512,0-2.7,0.414-3.564,1.242
		c-0.863,0.828-1.322,2.105-1.377,3.834c-0.018,0.522-0.026,1.323-0.026,2.403c0,1.062,0.009,1.862,0.026,2.402
		c0.055,1.746,0.514,3.033,1.377,3.861c0.864,0.828,2.053,1.242,3.564,1.242c1.529,0,2.754-0.419,3.672-1.256
		s1.377-2.093,1.377-3.767v-1.161h-4.131c-0.18,0-0.329-0.062-0.445-0.188c-0.117-0.126-0.176-0.279-0.176-0.459v-0.811
		c0-0.18,0.059-0.333,0.176-0.459c0.116-0.125,0.266-0.188,0.445-0.188h6.048c0.198,0,0.355,0.059,0.473,0.175
		c0.117,0.118,0.176,0.275,0.176,0.473v2.565c0,1.458-0.302,2.74-0.905,3.848c-0.603,1.106-1.48,1.962-2.632,2.564
		c-1.152,0.604-2.511,0.904-4.077,0.904C427.403,444.27,425.585,443.622,424.289,442.326z"/>
	<path fill="#1A1A1A" d="M442.055,442.556c-1.098-1.143-1.7-2.704-1.809-4.685l-0.027-0.918l0.027-0.892
		c0.108-1.943,0.711-3.491,1.809-4.644c1.099-1.151,2.565-1.728,4.401-1.728c1.979,0,3.515,0.63,4.604,1.89s1.634,2.97,1.634,5.13
		v0.486c0,0.18-0.059,0.328-0.176,0.445s-0.266,0.176-0.445,0.176h-9.369v0.242c0.054,1.171,0.414,2.17,1.08,2.997
		c0.666,0.828,1.548,1.242,2.646,1.242c0.847,0,1.535-0.166,2.066-0.499c0.53-0.333,0.931-0.68,1.201-1.04
		c0.162-0.216,0.287-0.346,0.378-0.392c0.09-0.044,0.243-0.067,0.459-0.067h1.188c0.162,0,0.302,0.045,0.419,0.135
		c0.117,0.091,0.176,0.208,0.176,0.352c0,0.396-0.243,0.873-0.729,1.431c-0.485,0.559-1.174,1.04-2.065,1.444
		c-0.891,0.405-1.913,0.607-3.064,0.607C444.62,444.27,443.153,443.699,442.055,442.556z M450.236,435.981V435.9
		c0-1.26-0.343-2.286-1.026-3.078c-0.685-0.792-1.603-1.188-2.754-1.188c-1.17,0-2.088,0.396-2.754,1.188s-0.999,1.818-0.999,3.078
		v0.081H450.236z"/>
	<path fill="#1A1A1A" d="M457.647,443.662c-0.855-0.404-1.489-0.868-1.903-1.39c-0.414-0.522-0.621-0.954-0.621-1.297
		c0-0.18,0.062-0.319,0.188-0.418s0.261-0.148,0.405-0.148h1.134c0.108,0,0.193,0.018,0.257,0.054
		c0.062,0.036,0.148,0.117,0.257,0.243c0.413,0.504,0.877,0.9,1.391,1.188c0.513,0.289,1.201,0.433,2.065,0.433
		c0.972,0,1.75-0.18,2.335-0.54s0.878-0.882,0.878-1.566c0-0.449-0.126-0.81-0.378-1.08c-0.253-0.27-0.671-0.513-1.256-0.729
		s-1.454-0.45-2.605-0.702c-1.566-0.342-2.673-0.837-3.321-1.485c-0.647-0.647-0.972-1.484-0.972-2.511
		c0-0.666,0.198-1.31,0.594-1.931s0.985-1.124,1.769-1.512c0.783-0.387,1.715-0.58,2.795-0.58c1.134,0,2.101,0.188,2.902,0.566
		c0.801,0.378,1.404,0.819,1.809,1.323c0.405,0.504,0.607,0.927,0.607,1.269c0,0.162-0.059,0.298-0.175,0.405
		c-0.117,0.108-0.257,0.162-0.419,0.162h-1.026c-0.252,0-0.432-0.099-0.539-0.297c-0.307-0.342-0.563-0.607-0.77-0.797
		c-0.208-0.188-0.509-0.351-0.905-0.485c-0.396-0.136-0.891-0.203-1.484-0.203c-0.883,0-1.558,0.185-2.025,0.554
		s-0.702,0.859-0.702,1.472c0,0.378,0.099,0.697,0.297,0.958c0.198,0.262,0.576,0.505,1.135,0.729
		c0.558,0.226,1.386,0.455,2.483,0.688c1.71,0.36,2.921,0.873,3.632,1.539s1.066,1.521,1.066,2.564c0,0.774-0.221,1.477-0.661,2.106
		c-0.441,0.63-1.099,1.125-1.972,1.485c-0.873,0.359-1.912,0.539-3.118,0.539C459.551,444.27,458.502,444.067,457.647,443.662z"/>
	<path fill="#1A1A1A" d="M470.81,442.637c-1.08-1.089-1.646-2.614-1.701-4.577l-0.026-1.079l0.026-1.08
		c0.055-1.962,0.621-3.487,1.701-4.577c1.08-1.089,2.583-1.633,4.509-1.633c1.296,0,2.39,0.229,3.281,0.688
		c0.891,0.459,1.557,1.03,1.998,1.714c0.44,0.685,0.679,1.368,0.715,2.052c0.018,0.162-0.04,0.307-0.175,0.433
		c-0.136,0.126-0.284,0.188-0.446,0.188h-1.188c-0.181,0-0.315-0.04-0.405-0.121s-0.18-0.229-0.27-0.445
		c-0.324-0.882-0.77-1.508-1.337-1.877c-0.567-0.368-1.282-0.554-2.146-0.554c-1.134,0-2.034,0.352-2.7,1.054
		s-1.025,1.772-1.08,3.213l-0.026,0.945l0.026,0.944c0.055,1.44,0.414,2.511,1.08,3.213s1.566,1.054,2.7,1.054
		c0.882,0,1.602-0.185,2.16-0.554c0.558-0.369,0.999-0.994,1.323-1.877c0.09-0.216,0.18-0.364,0.27-0.445s0.225-0.121,0.405-0.121
		h1.188c0.162,0,0.311,0.062,0.446,0.188c0.135,0.126,0.192,0.271,0.175,0.433c-0.036,0.666-0.274,1.341-0.715,2.024
		c-0.441,0.685-1.107,1.261-1.998,1.729c-0.892,0.468-1.985,0.701-3.281,0.701C473.393,444.27,471.89,443.726,470.81,442.637z"/>
	<path fill="#1A1A1A" d="M484.755,443.824c-0.117-0.116-0.176-0.265-0.176-0.445v-17.928c0-0.198,0.059-0.352,0.176-0.459
		c0.117-0.108,0.266-0.162,0.445-0.162h1.242c0.198,0,0.351,0.054,0.459,0.162c0.108,0.107,0.162,0.261,0.162,0.459v6.291
		c0.521-0.666,1.138-1.175,1.85-1.525c0.711-0.352,1.588-0.526,2.632-0.526c1.729,0,3.074,0.553,4.037,1.66
		c0.963,1.106,1.444,2.569,1.444,4.388v7.641c0,0.181-0.059,0.329-0.176,0.445c-0.117,0.117-0.266,0.176-0.445,0.176h-1.269
		c-0.181,0-0.329-0.059-0.446-0.176c-0.117-0.116-0.175-0.265-0.175-0.445V435.9c0-1.297-0.315-2.305-0.945-3.024
		s-1.539-1.08-2.727-1.08c-1.152,0-2.07,0.364-2.755,1.094c-0.684,0.729-1.025,1.732-1.025,3.011v7.479
		c0,0.181-0.059,0.329-0.176,0.445c-0.117,0.117-0.266,0.176-0.445,0.176H485.2C485.021,444,484.872,443.941,484.755,443.824z"/>
	<path fill="#1A1A1A" d="M502.386,443.73c-0.747-0.36-1.342-0.851-1.782-1.472c-0.441-0.621-0.661-1.31-0.661-2.065
		c0-1.188,0.485-2.16,1.458-2.916c0.972-0.756,2.295-1.26,3.969-1.513l4.05-0.566v-0.783c0-1.854-1.071-2.781-3.213-2.781
		c-0.828,0-1.494,0.167-1.998,0.5s-0.873,0.725-1.107,1.174c-0.071,0.181-0.148,0.302-0.229,0.365
		c-0.081,0.062-0.193,0.094-0.337,0.094h-1.053c-0.162,0-0.302-0.058-0.419-0.175s-0.176-0.257-0.176-0.419
		c0-0.414,0.193-0.896,0.581-1.444c0.387-0.549,0.985-1.026,1.795-1.431c0.811-0.405,1.8-0.607,2.971-0.607
		c2.016,0,3.46,0.468,4.333,1.403c0.873,0.937,1.31,2.106,1.31,3.51v8.775c0,0.181-0.059,0.329-0.176,0.445
		c-0.117,0.117-0.266,0.176-0.445,0.176h-1.188c-0.181,0-0.324-0.059-0.433-0.176c-0.107-0.116-0.162-0.265-0.162-0.445v-1.188
		c-0.396,0.594-0.972,1.089-1.728,1.484s-1.729,0.594-2.916,0.594C503.947,444.27,503.132,444.09,502.386,443.73z M508.285,441.138
		c0.756-0.773,1.134-1.898,1.134-3.375v-0.756l-3.159,0.459c-1.296,0.181-2.277,0.486-2.942,0.918
		c-0.667,0.433-0.999,0.973-0.999,1.62c0,0.738,0.301,1.306,0.904,1.701c0.603,0.396,1.318,0.594,2.146,0.594
		C506.557,442.299,507.529,441.912,508.285,441.138z M502.858,427.044c-0.108-0.108-0.162-0.252-0.162-0.432v-1.404
		c0-0.18,0.054-0.328,0.162-0.445c0.107-0.117,0.252-0.176,0.432-0.176h1.404c0.18,0,0.328,0.059,0.445,0.176
		s0.176,0.266,0.176,0.445v1.404c0,0.18-0.059,0.323-0.176,0.432s-0.266,0.162-0.445,0.162h-1.404
		C503.11,427.206,502.966,427.152,502.858,427.044z M507.367,427.044c-0.108-0.108-0.162-0.252-0.162-0.432v-1.404
		c0-0.18,0.054-0.328,0.162-0.445c0.107-0.117,0.252-0.176,0.432-0.176h1.432c0.18,0,0.328,0.059,0.445,0.176
		c0.116,0.117,0.175,0.266,0.175,0.445v1.404c0,0.18-0.059,0.323-0.175,0.432c-0.117,0.108-0.266,0.162-0.445,0.162h-1.432
		C507.619,427.206,507.475,427.152,507.367,427.044z"/>
	<path fill="#1A1A1A" d="M517.235,443.824c-0.117-0.116-0.176-0.265-0.176-0.445v-11.34h-2.321c-0.181,0-0.329-0.054-0.446-0.162
		s-0.175-0.252-0.175-0.432v-0.864c0-0.18,0.058-0.328,0.175-0.445s0.266-0.176,0.446-0.176h2.321v-1.35
		c0-1.458,0.355-2.588,1.066-3.389s1.877-1.202,3.497-1.202h1.593c0.18,0,0.328,0.06,0.445,0.176
		c0.117,0.117,0.176,0.266,0.176,0.445v0.864c0,0.181-0.059,0.324-0.176,0.432c-0.117,0.108-0.266,0.162-0.445,0.162h-1.539
		c-0.828,0-1.404,0.217-1.728,0.648c-0.324,0.432-0.486,1.098-0.486,1.998v1.215h3.483c0.18,0,0.328,0.059,0.445,0.176
		c0.116,0.117,0.175,0.266,0.175,0.445v0.864c0,0.18-0.059,0.323-0.175,0.432c-0.117,0.108-0.266,0.162-0.445,0.162h-3.483v11.34
		c0,0.181-0.059,0.329-0.176,0.445c-0.117,0.117-0.266,0.176-0.445,0.176h-1.161C517.501,444,517.353,443.941,517.235,443.824z"/>
	<path fill="#1A1A1A" d="M527.185,439.275v-7.236h-2.133c-0.181,0-0.324-0.054-0.433-0.162c-0.107-0.108-0.162-0.252-0.162-0.432
		v-0.864c0-0.18,0.055-0.328,0.162-0.445c0.108-0.117,0.252-0.176,0.433-0.176h2.133v-4.509c0-0.18,0.054-0.328,0.162-0.445
		c0.107-0.117,0.252-0.176,0.432-0.176h1.188c0.18,0,0.328,0.059,0.445,0.176c0.116,0.117,0.175,0.266,0.175,0.445v4.509h3.349
		c0.18,0,0.328,0.059,0.445,0.176s0.176,0.266,0.176,0.445v0.864c0,0.18-0.059,0.323-0.176,0.432s-0.266,0.162-0.445,0.162h-3.349
		v7.047c0,0.918,0.148,1.611,0.446,2.079c0.297,0.468,0.805,0.702,1.525,0.702h1.646c0.18,0,0.324,0.059,0.433,0.176
		c0.107,0.117,0.162,0.266,0.162,0.445v0.891c0,0.181-0.055,0.329-0.162,0.445c-0.108,0.117-0.253,0.176-0.433,0.176h-1.836
		C528.579,444,527.185,442.425,527.185,439.275z"/>
	<path fill="#1A1A1A" d="M538.105,443.662c-0.855-0.404-1.489-0.868-1.903-1.39c-0.414-0.522-0.621-0.954-0.621-1.297
		c0-0.18,0.062-0.319,0.188-0.418s0.261-0.148,0.405-0.148h1.134c0.108,0,0.193,0.018,0.257,0.054
		c0.062,0.036,0.148,0.117,0.257,0.243c0.413,0.504,0.877,0.9,1.391,1.188c0.513,0.289,1.201,0.433,2.065,0.433
		c0.972,0,1.75-0.18,2.335-0.54s0.878-0.882,0.878-1.566c0-0.449-0.126-0.81-0.378-1.08c-0.253-0.27-0.671-0.513-1.256-0.729
		s-1.454-0.45-2.605-0.702c-1.566-0.342-2.673-0.837-3.321-1.485c-0.647-0.647-0.972-1.484-0.972-2.511
		c0-0.666,0.198-1.31,0.594-1.931s0.985-1.124,1.769-1.512c0.783-0.387,1.715-0.58,2.795-0.58c1.134,0,2.101,0.188,2.902,0.566
		c0.801,0.378,1.404,0.819,1.809,1.323c0.405,0.504,0.607,0.927,0.607,1.269c0,0.162-0.059,0.298-0.175,0.405
		c-0.117,0.108-0.257,0.162-0.419,0.162h-1.026c-0.252,0-0.432-0.099-0.539-0.297c-0.307-0.342-0.563-0.607-0.77-0.797
		c-0.208-0.188-0.509-0.351-0.905-0.485c-0.396-0.136-0.891-0.203-1.484-0.203c-0.883,0-1.558,0.185-2.025,0.554
		s-0.702,0.859-0.702,1.472c0,0.378,0.099,0.697,0.297,0.958c0.198,0.262,0.576,0.505,1.135,0.729
		c0.558,0.226,1.386,0.455,2.483,0.688c1.71,0.36,2.921,0.873,3.632,1.539s1.066,1.521,1.066,2.564c0,0.774-0.221,1.477-0.661,2.106
		c-0.441,0.63-1.099,1.125-1.972,1.485c-0.873,0.359-1.912,0.539-3.118,0.539C540.009,444.27,538.96,444.067,538.105,443.662z"/>
	<path fill="#1A1A1A" d="M550.336,443.824c-0.117-0.116-0.175-0.265-0.175-0.445v-12.798c0-0.18,0.058-0.328,0.175-0.445
		s0.266-0.176,0.446-0.176h1.134c0.18,0,0.323,0.059,0.432,0.176s0.162,0.266,0.162,0.445v0.918
		c0.972-1.206,2.286-1.809,3.942-1.809c1.979,0,3.384,0.828,4.212,2.483c0.432-0.756,1.048-1.358,1.85-1.809
		c0.8-0.45,1.696-0.675,2.687-0.675c1.476,0,2.682,0.504,3.617,1.512c0.937,1.008,1.404,2.466,1.404,4.374v7.803
		c0,0.181-0.059,0.329-0.176,0.445c-0.117,0.117-0.266,0.176-0.445,0.176h-1.161c-0.18,0-0.328-0.059-0.445-0.176
		c-0.117-0.116-0.176-0.265-0.176-0.445v-7.56c0-1.44-0.297-2.471-0.891-3.092s-1.377-0.932-2.349-0.932
		c-0.864,0-1.606,0.32-2.228,0.959s-0.932,1.66-0.932,3.064v7.56c0,0.181-0.059,0.329-0.176,0.445
		c-0.117,0.117-0.266,0.176-0.445,0.176h-1.188c-0.18,0-0.328-0.059-0.445-0.176c-0.117-0.116-0.176-0.265-0.176-0.445v-7.56
		c0-1.422-0.31-2.448-0.931-3.078s-1.391-0.945-2.309-0.945c-0.864,0-1.606,0.315-2.228,0.945s-0.932,1.646-0.932,3.051v7.587
		c0,0.181-0.059,0.329-0.176,0.445c-0.117,0.117-0.266,0.176-0.445,0.176h-1.188C550.602,444,550.453,443.941,550.336,443.824z"/>
	<path fill="#1A1A1A" d="M575.257,442.596c-1.071-1.115-1.643-2.601-1.715-4.455l-0.026-1.16l0.026-1.161
		c0.072-1.854,0.652-3.339,1.742-4.455c1.089-1.116,2.605-1.674,4.549-1.674c1.944,0,3.461,0.558,4.55,1.674
		s1.669,2.601,1.741,4.455c0.036,0.396,0.055,0.782,0.055,1.161c0,0.378-0.019,0.765-0.055,1.16
		c-0.072,1.854-0.644,3.34-1.714,4.455c-1.071,1.116-2.597,1.674-4.577,1.674C577.854,444.27,576.327,443.712,575.257,442.596z
		 M582.574,441.151c0.675-0.729,1.039-1.777,1.093-3.146c0.018-0.18,0.027-0.521,0.027-1.025s-0.01-0.847-0.027-1.026
		c-0.054-1.368-0.418-2.417-1.093-3.146c-0.676-0.729-1.589-1.094-2.741-1.094c-1.151,0-2.065,0.364-2.74,1.094
		c-0.675,0.729-1.039,1.777-1.094,3.146l-0.026,1.026l0.026,1.025c0.055,1.368,0.419,2.417,1.094,3.146
		c0.675,0.729,1.589,1.094,2.74,1.094C580.985,442.245,581.898,441.881,582.574,441.151z"/>
	<path fill="#1A1A1A" d="M590.457,442.434c-0.945-1.224-1.454-2.771-1.525-4.644l-0.027-0.81l0.027-0.811
		c0.071-1.854,0.585-3.397,1.539-4.631c0.954-1.232,2.367-1.849,4.239-1.849s3.329,0.666,4.374,1.998v-6.237
		c0-0.18,0.058-0.328,0.175-0.445s0.266-0.176,0.446-0.176h1.215c0.18,0,0.328,0.059,0.445,0.176s0.176,0.266,0.176,0.445v17.928
		c0,0.181-0.059,0.329-0.176,0.445c-0.117,0.117-0.266,0.176-0.445,0.176h-1.161c-0.181,0-0.324-0.059-0.432-0.176
		c-0.108-0.116-0.162-0.265-0.162-0.445v-1.161c-1.026,1.368-2.512,2.052-4.455,2.052
		C592.819,444.27,591.402,443.658,590.457,442.434z M598.058,440.908c0.63-0.837,0.972-1.831,1.026-2.983
		c0.018-0.197,0.026-0.54,0.026-1.025c0-0.504-0.009-0.855-0.026-1.054c-0.036-1.098-0.383-2.047-1.04-2.849
		c-0.657-0.8-1.598-1.201-2.821-1.201c-1.296,0-2.241,0.405-2.835,1.215c-0.594,0.811-0.918,1.872-0.972,3.187l-0.027,0.783
		c0,3.455,1.278,5.184,3.834,5.184C596.482,442.164,597.428,441.745,598.058,440.908z"/>
	<path fill="#1A1A1A" d="M606.778,442.556c-1.098-1.143-1.7-2.704-1.809-4.685l-0.027-0.918l0.027-0.892
		c0.108-1.943,0.711-3.491,1.809-4.644c1.099-1.151,2.565-1.728,4.401-1.728c1.979,0,3.515,0.63,4.604,1.89s1.634,2.97,1.634,5.13
		v0.486c0,0.18-0.059,0.328-0.176,0.445s-0.266,0.176-0.445,0.176h-9.369v0.242c0.054,1.171,0.414,2.17,1.08,2.997
		c0.666,0.828,1.548,1.242,2.646,1.242c0.847,0,1.535-0.166,2.066-0.499c0.53-0.333,0.931-0.68,1.201-1.04
		c0.162-0.216,0.287-0.346,0.378-0.392c0.09-0.044,0.243-0.067,0.459-0.067h1.188c0.162,0,0.302,0.045,0.419,0.135
		c0.117,0.091,0.176,0.208,0.176,0.352c0,0.396-0.243,0.873-0.729,1.431c-0.485,0.559-1.174,1.04-2.065,1.444
		c-0.891,0.405-1.913,0.607-3.064,0.607C609.344,444.27,607.877,443.699,606.778,442.556z M614.96,435.981V435.9
		c0-1.26-0.343-2.286-1.026-3.078c-0.685-0.792-1.603-1.188-2.754-1.188c-1.17,0-2.088,0.396-2.754,1.188s-0.999,1.818-0.999,3.078
		v0.081H614.96z"/>
	<path fill="#1A1A1A" d="M620.913,443.824c-0.117-0.116-0.176-0.265-0.176-0.445v-17.928c0-0.198,0.059-0.352,0.176-0.459
		c0.117-0.108,0.266-0.162,0.445-0.162h1.188c0.18,0,0.328,0.059,0.445,0.176s0.176,0.266,0.176,0.445v17.928
		c0,0.181-0.059,0.329-0.176,0.445c-0.117,0.117-0.266,0.176-0.445,0.176h-1.188C621.179,444,621.03,443.941,620.913,443.824z"/>
	<path fill="#1A1A1A" d="M627.42,443.824c-0.117-0.116-0.176-0.265-0.176-0.445v-17.928c0-0.198,0.059-0.352,0.176-0.459
		c0.117-0.108,0.266-0.162,0.445-0.162h1.188c0.18,0,0.328,0.059,0.445,0.176s0.176,0.266,0.176,0.445v17.928
		c0,0.181-0.059,0.329-0.176,0.445c-0.117,0.117-0.266,0.176-0.445,0.176h-1.188C627.686,444,627.537,443.941,627.42,443.824z"/>
	<path fill="#1A1A1A" d="M634.885,442.556c-1.098-1.143-1.7-2.704-1.809-4.685l-0.027-0.918l0.027-0.892
		c0.108-1.943,0.711-3.491,1.809-4.644c1.099-1.151,2.565-1.728,4.401-1.728c1.979,0,3.515,0.63,4.604,1.89s1.634,2.97,1.634,5.13
		v0.486c0,0.18-0.059,0.328-0.176,0.445s-0.266,0.176-0.445,0.176h-9.369v0.242c0.054,1.171,0.414,2.17,1.08,2.997
		c0.666,0.828,1.548,1.242,2.646,1.242c0.847,0,1.535-0.166,2.066-0.499c0.53-0.333,0.931-0.68,1.201-1.04
		c0.162-0.216,0.287-0.346,0.378-0.392c0.09-0.044,0.243-0.067,0.459-0.067h1.188c0.162,0,0.302,0.045,0.419,0.135
		c0.117,0.091,0.176,0.208,0.176,0.352c0,0.396-0.243,0.873-0.729,1.431c-0.485,0.559-1.174,1.04-2.065,1.444
		c-0.891,0.405-1.913,0.607-3.064,0.607C637.45,444.27,635.983,443.699,634.885,442.556z M643.066,435.981V435.9
		c0-1.26-0.343-2.286-1.026-3.078c-0.685-0.792-1.603-1.188-2.754-1.188c-1.17,0-2.088,0.396-2.754,1.188s-0.999,1.818-0.999,3.078
		v0.081H643.066z"/>
	<path fill="#1A1A1A" d="M771.426,443.824c-0.108-0.116-0.162-0.265-0.162-0.445v-17.658c0-0.18,0.054-0.328,0.162-0.445
		s0.252-0.176,0.432-0.176h1.351c0.197,0,0.351,0.055,0.459,0.162c0.107,0.108,0.162,0.262,0.162,0.459v17.658
		c0,0.181-0.059,0.329-0.176,0.445c-0.117,0.117-0.266,0.176-0.445,0.176h-1.351C771.678,444,771.534,443.941,771.426,443.824z"/>
	<path fill="#1A1A1A" d="M779.351,442.596c-1.071-1.115-1.643-2.601-1.715-4.455l-0.026-1.16l0.026-1.161
		c0.072-1.854,0.652-3.339,1.742-4.455c1.089-1.116,2.605-1.674,4.549-1.674c1.944,0,3.461,0.558,4.55,1.674
		s1.669,2.601,1.741,4.455c0.036,0.396,0.055,0.782,0.055,1.161c0,0.378-0.019,0.765-0.055,1.16
		c-0.072,1.854-0.644,3.34-1.714,4.455c-1.071,1.116-2.597,1.674-4.577,1.674C781.947,444.27,780.421,443.712,779.351,442.596z
		 M786.668,441.151c0.675-0.729,1.039-1.777,1.093-3.146c0.018-0.18,0.027-0.521,0.027-1.025s-0.01-0.847-0.027-1.026
		c-0.054-1.368-0.418-2.417-1.093-3.146c-0.676-0.729-1.589-1.094-2.741-1.094c-1.151,0-2.065,0.364-2.74,1.094
		c-0.675,0.729-1.039,1.777-1.094,3.146l-0.026,1.026l0.026,1.025c0.055,1.368,0.419,2.417,1.094,3.146
		c0.675,0.729,1.589,1.094,2.74,1.094C785.079,442.245,785.992,441.881,786.668,441.151z"/>
	<path fill="#1A1A1A" d="M795.739,443.824c-0.117-0.116-0.176-0.265-0.176-0.445v-15.957h-5.211c-0.18,0-0.328-0.058-0.445-0.176
		c-0.117-0.116-0.176-0.265-0.176-0.445v-1.053c0-0.198,0.059-0.355,0.176-0.473s0.266-0.176,0.445-0.176h12.96
		c0.198,0,0.352,0.059,0.459,0.176c0.108,0.117,0.162,0.274,0.162,0.473v1.053c0,0.181-0.059,0.329-0.176,0.445
		c-0.117,0.118-0.266,0.176-0.445,0.176h-5.184v15.957c0,0.181-0.063,0.329-0.189,0.445c-0.126,0.117-0.279,0.176-0.459,0.176
		h-1.296C796.005,444,795.856,443.941,795.739,443.824z"/>
</g>
<g>
	<path fill="#1A1A1A" d="M20.414,51.559c-0.294-0.293-0.441-0.65-0.441-1.07V9.475c0-0.461,0.136-0.839,0.41-1.134
		c0.272-0.293,0.64-0.44,1.102-0.44h18.27c4.914,0,8.589,1.081,11.025,3.244c2.435,2.164,3.654,5.114,3.654,8.852
		c0,2.185-0.536,4.043-1.606,5.575c-1.071,1.534-2.321,2.637-3.749,3.308c1.764,0.799,3.254,2.101,4.473,3.906
		c1.217,1.807,1.827,3.864,1.827,6.174c0,3.906-1.323,7.056-3.969,9.45C48.764,50.803,45.068,52,40.322,52H21.485
		C21.065,52,20.708,51.854,20.414,51.559z M38.621,25.981c2.142,0,3.79-0.525,4.945-1.575c1.155-1.05,1.733-2.457,1.733-4.222
		c0-1.764-0.567-3.128-1.701-4.095c-1.134-0.966-2.794-1.449-4.977-1.449h-9.765v11.341H38.621z M39.251,45.259
		c2.184,0,3.884-0.599,5.103-1.795c1.218-1.197,1.827-2.719,1.827-4.567s-0.62-3.371-1.858-4.568
		c-1.239-1.196-2.93-1.795-5.072-1.795H28.856v12.726H39.251z"/>
	<path fill="#1A1A1A" d="M63.695,51.559c-0.294-0.293-0.441-0.65-0.441-1.07V9.412c0-0.462,0.146-0.829,0.441-1.103
		C63.988,8.037,64.346,7.9,64.766,7.9h5.922c0.461,0,0.829,0.137,1.103,0.409C72.063,8.583,72.2,8.95,72.2,9.412V44.44h19.971
		c0.461,0,0.84,0.147,1.134,0.44c0.293,0.295,0.441,0.651,0.441,1.071v4.536c0,0.42-0.147,0.777-0.441,1.07
		C93.011,51.854,92.632,52,92.171,52H64.766C64.346,52,63.988,51.854,63.695,51.559z"/>
	<path fill="#1A1A1A" d="M102.881,48.283c-3.192-2.898-4.873-7.203-5.04-12.915c-0.042-1.218-0.063-3.003-0.063-5.355
		c0-2.394,0.021-4.199,0.063-5.418c0.167-5.585,1.89-9.869,5.166-12.852c3.276-2.981,7.707-4.474,13.293-4.474
		c5.544,0,9.964,1.492,13.262,4.474c3.296,2.982,5.029,7.267,5.197,12.852c0.084,2.437,0.126,4.243,0.126,5.418
		c0,1.135-0.042,2.92-0.126,5.355c-0.168,5.712-1.858,10.017-5.071,12.915c-3.213,2.897-7.676,4.347-13.388,4.347
		C110.546,52.63,106.073,51.181,102.881,48.283z M122.979,42.802c1.638-1.679,2.52-4.262,2.646-7.749
		c0.083-2.52,0.126-4.221,0.126-5.103c0-0.966-0.042-2.667-0.126-5.104c-0.126-3.443-1.03-6.017-2.709-7.717
		c-1.68-1.701-3.885-2.552-6.615-2.552c-2.772,0-4.999,0.851-6.678,2.552c-1.681,1.7-2.562,4.273-2.646,7.717
		c-0.042,1.219-0.063,2.92-0.063,5.104c0,2.142,0.021,3.843,0.063,5.103c0.083,3.444,0.955,6.017,2.614,7.718
		c1.659,1.701,3.896,2.552,6.709,2.552C119.114,45.322,121.34,44.482,122.979,42.802z"/>
	<path fill="#1A1A1A" d="M146.634,48.188c-3.172-2.961-4.862-7.171-5.072-12.632c-0.042-1.134-0.063-2.981-0.063-5.544
		c0-2.604,0.021-4.493,0.063-5.67c0.21-5.375,1.911-9.565,5.103-12.568c3.191-3.002,7.665-4.505,13.419-4.505
		c3.738,0,6.993,0.642,9.765,1.922c2.772,1.282,4.924,3.035,6.458,5.261c1.533,2.227,2.341,4.725,2.425,7.497v0.126
		c0,0.337-0.137,0.62-0.409,0.851c-0.274,0.231-0.578,0.347-0.914,0.347h-6.111c-0.504,0-0.882-0.115-1.134-0.347
		c-0.252-0.23-0.462-0.64-0.63-1.229c-0.63-2.604-1.723-4.441-3.276-5.513c-1.555-1.071-3.613-1.606-6.174-1.606
		c-6.006,0-9.135,3.36-9.387,10.08c-0.042,1.134-0.063,2.877-0.063,5.229c0,2.353,0.021,4.138,0.063,5.355
		c0.252,6.72,3.38,10.08,9.387,10.08c2.52,0,4.568-0.536,6.143-1.606c1.575-1.071,2.678-2.908,3.308-5.513
		c0.167-0.588,0.378-0.997,0.63-1.229c0.252-0.23,0.63-0.347,1.134-0.347h6.111c0.378,0,0.703,0.126,0.977,0.378
		c0.272,0.252,0.388,0.567,0.346,0.945c-0.084,2.771-0.893,5.271-2.425,7.497c-1.534,2.227-3.686,3.979-6.458,5.261
		s-6.027,1.921-9.765,1.921C154.289,52.63,149.805,51.149,146.634,48.188z"/>
	<path fill="#1A1A1A" d="M186.67,51.559c-0.294-0.293-0.441-0.65-0.441-1.07V9.475c0-0.461,0.136-0.839,0.41-1.134
		c0.272-0.293,0.64-0.44,1.102-0.44h5.67c0.461,0,0.839,0.147,1.134,0.44c0.293,0.295,0.441,0.673,0.441,1.134v14.742l14.049-15.183
		c0.63-0.756,1.449-1.134,2.457-1.134h6.426c0.335,0,0.64,0.126,0.914,0.378c0.272,0.252,0.409,0.566,0.409,0.944
		c0,0.295-0.105,0.547-0.315,0.756l-17.136,19.026l18.396,20.854c0.167,0.294,0.252,0.566,0.252,0.818
		c0,0.378-0.126,0.693-0.378,0.945S219.514,52,219.178,52h-6.615c-0.882,0-1.512-0.178-1.89-0.535
		c-0.378-0.356-0.588-0.557-0.63-0.599l-15.057-16.632v16.254c0,0.42-0.147,0.777-0.441,1.07c-0.294,0.295-0.672,0.441-1.134,0.441
		h-5.67C187.321,52,186.964,51.854,186.67,51.559z"/>
	<path fill="#1A1A1A" d="M227.4,48.188c-3.172-2.961-4.862-7.171-5.072-12.632c-0.042-1.134-0.063-2.981-0.063-5.544
		c0-2.604,0.021-4.493,0.063-5.67c0.21-5.375,1.911-9.565,5.103-12.568c3.191-3.002,7.665-4.505,13.419-4.505
		c3.738,0,6.993,0.642,9.765,1.922c2.772,1.282,4.924,3.035,6.458,5.261c1.533,2.227,2.341,4.725,2.425,7.497v0.126
		c0,0.337-0.137,0.62-0.409,0.851c-0.274,0.231-0.578,0.347-0.914,0.347h-6.111c-0.504,0-0.882-0.115-1.134-0.347
		c-0.252-0.23-0.462-0.64-0.63-1.229c-0.63-2.604-1.723-4.441-3.276-5.513c-1.555-1.071-3.613-1.606-6.174-1.606
		c-6.006,0-9.135,3.36-9.387,10.08c-0.042,1.134-0.063,2.877-0.063,5.229c0,2.353,0.021,4.138,0.063,5.355
		c0.252,6.72,3.38,10.08,9.387,10.08c2.52,0,4.568-0.536,6.143-1.606c1.575-1.071,2.678-2.908,3.308-5.513
		c0.167-0.588,0.378-0.997,0.63-1.229c0.252-0.23,0.63-0.347,1.134-0.347h6.111c0.378,0,0.703,0.126,0.977,0.378
		c0.272,0.252,0.388,0.567,0.346,0.945c-0.084,2.771-0.893,5.271-2.425,7.497c-1.534,2.227-3.686,3.979-6.458,5.261
		s-6.027,1.921-9.765,1.921C235.055,52.63,230.571,51.149,227.4,48.188z"/>
	<path fill="#1A1A1A" d="M267.437,51.559c-0.294-0.293-0.441-0.65-0.441-1.07V9.475c0-0.461,0.136-0.839,0.41-1.134
		c0.272-0.293,0.64-0.44,1.102-0.44h5.796c0.461,0,0.839,0.147,1.134,0.44c0.293,0.295,0.441,0.673,0.441,1.134v16.191h18.396V9.475
		c0-0.461,0.146-0.839,0.44-1.134c0.294-0.293,0.651-0.44,1.071-0.44h5.859c0.461,0,0.828,0.147,1.102,0.44
		c0.273,0.295,0.41,0.673,0.41,1.134v41.014c0,0.42-0.137,0.777-0.41,1.07c-0.273,0.295-0.641,0.441-1.102,0.441h-5.859
		c-0.42,0-0.777-0.146-1.071-0.441c-0.294-0.293-0.44-0.65-0.44-1.07V33.667h-18.396v16.821c0,0.42-0.147,0.777-0.441,1.07
		c-0.294,0.295-0.672,0.441-1.134,0.441h-5.796C268.087,52,267.73,51.854,267.437,51.559z"/>
	<path fill="#1A1A1A" d="M309.331,51.622c-0.252-0.252-0.378-0.567-0.378-0.945l0.126-0.566l15.121-40.636
		c0.418-1.049,1.176-1.574,2.268-1.574h6.93c1.092,0,1.848,0.525,2.268,1.574l15.121,40.636l0.125,0.566
		c0,0.378-0.137,0.693-0.408,0.945c-0.273,0.252-0.578,0.378-0.914,0.378h-5.607c-0.881,0-1.49-0.398-1.826-1.197l-2.898-7.623
		h-18.648l-2.898,7.623c-0.336,0.799-0.943,1.197-1.826,1.197h-5.607C309.898,52,309.583,51.874,309.331,51.622z M322.812,35.872
		h14.238l-7.119-19.404L322.812,35.872z"/>
	<path fill="#1A1A1A" d="M357.148,51.559c-0.295-0.293-0.441-0.65-0.441-1.07V9.412c0-0.462,0.146-0.829,0.441-1.103
		c0.293-0.272,0.65-0.409,1.07-0.409h6.047c0.463,0,0.83,0.137,1.104,0.409c0.273,0.273,0.41,0.641,0.41,1.103v41.076
		c0,0.42-0.137,0.777-0.41,1.07c-0.273,0.295-0.641,0.441-1.104,0.441h-6.047C357.799,52,357.441,51.854,357.148,51.559z"/>
	<path fill="#1A1A1A" d="M376.047,51.559c-0.295-0.293-0.441-0.65-0.441-1.07V9.475c0-0.461,0.137-0.839,0.41-1.134
		c0.271-0.293,0.639-0.44,1.102-0.44h4.914c0.799,0,1.408,0.357,1.828,1.07l18.018,27.973V9.475c0-0.461,0.137-0.839,0.41-1.134
		c0.271-0.293,0.639-0.44,1.102-0.44h5.418c0.463,0,0.84,0.147,1.135,0.44c0.293,0.295,0.441,0.673,0.441,1.134v40.95
		c0,0.463-0.148,0.841-0.441,1.134c-0.295,0.295-0.652,0.441-1.072,0.441h-4.977c-0.84,0-1.471-0.356-1.891-1.071l-17.953-27.342
		v26.901c0,0.42-0.139,0.777-0.41,1.07c-0.273,0.295-0.641,0.441-1.104,0.441h-5.418C376.697,52,376.34,51.854,376.047,51.559z"/>
	<path fill="#1A1A1A" d="M443.141,51.559c-0.293-0.293-0.439-0.65-0.439-1.07V15.775h-11.656c-0.42,0-0.777-0.147-1.07-0.441
		c-0.295-0.293-0.441-0.671-0.441-1.134V9.475c0-0.461,0.137-0.839,0.41-1.134c0.271-0.293,0.639-0.44,1.102-0.44h32.193
		c0.461,0,0.84,0.147,1.135,0.44c0.293,0.295,0.439,0.673,0.439,1.134V14.2c0,0.463-0.146,0.841-0.439,1.134
		c-0.295,0.294-0.674,0.441-1.135,0.441h-11.592v34.713c0,0.42-0.137,0.777-0.41,1.07c-0.273,0.295-0.641,0.441-1.102,0.441h-5.922
		C443.793,52,443.436,51.854,443.141,51.559z"/>
	<path fill="#1A1A1A" d="M471.617,51.559c-0.295-0.293-0.441-0.65-0.441-1.07V9.475c0-0.461,0.135-0.839,0.408-1.134
		c0.273-0.293,0.641-0.44,1.104-0.44h27.783c0.461,0,0.84,0.147,1.133,0.44c0.295,0.295,0.441,0.673,0.441,1.134v4.222
		c0,0.462-0.146,0.829-0.441,1.103c-0.293,0.273-0.672,0.409-1.133,0.409h-20.664v11.025h19.277c0.463,0,0.84,0.147,1.135,0.44
		c0.293,0.295,0.441,0.673,0.441,1.134v3.97c0,0.462-0.148,0.829-0.441,1.103c-0.295,0.273-0.672,0.409-1.135,0.409h-19.277v11.403
		h21.168c0.461,0,0.84,0.137,1.133,0.409c0.295,0.273,0.441,0.641,0.441,1.103v4.284c0,0.462-0.146,0.829-0.441,1.103
		c-0.293,0.273-0.672,0.409-1.133,0.409h-28.287C472.268,52,471.91,51.854,471.617,51.559z"/>
	<path fill="#1A1A1A" d="M513.605,48.188c-3.172-2.961-4.863-7.171-5.072-12.632c-0.043-1.134-0.062-2.981-0.062-5.544
		c0-2.604,0.02-4.493,0.062-5.67c0.209-5.375,1.91-9.565,5.104-12.568c3.191-3.002,7.664-4.505,13.418-4.505
		c3.738,0,6.994,0.642,9.766,1.922c2.771,1.282,4.924,3.035,6.457,5.261c1.533,2.227,2.342,4.725,2.426,7.497v0.126
		c0,0.337-0.137,0.62-0.41,0.851c-0.273,0.231-0.576,0.347-0.912,0.347h-6.111c-0.504,0-0.883-0.115-1.135-0.347
		c-0.252-0.23-0.463-0.64-0.629-1.229c-0.631-2.604-1.723-4.441-3.277-5.513c-1.553-1.071-3.611-1.606-6.174-1.606
		c-6.006,0-9.135,3.36-9.387,10.08c-0.041,1.134-0.062,2.877-0.062,5.229c0,2.353,0.021,4.138,0.062,5.355
		c0.252,6.72,3.381,10.08,9.387,10.08c2.521,0,4.568-0.536,6.143-1.606c1.576-1.071,2.678-2.908,3.309-5.513
		c0.166-0.588,0.377-0.997,0.629-1.229c0.252-0.23,0.631-0.347,1.135-0.347h6.111c0.377,0,0.703,0.126,0.977,0.378
		c0.271,0.252,0.387,0.567,0.346,0.945c-0.084,2.771-0.893,5.271-2.426,7.497c-1.533,2.227-3.686,3.979-6.457,5.261
		s-6.027,1.921-9.766,1.921C521.26,52.63,516.775,51.149,513.605,48.188z"/>
	<path fill="#1A1A1A" d="M553.643,51.559c-0.295-0.293-0.441-0.65-0.441-1.07V9.475c0-0.461,0.135-0.839,0.408-1.134
		c0.273-0.293,0.641-0.44,1.104-0.44h5.795c0.463,0,0.84,0.147,1.135,0.44c0.293,0.295,0.441,0.673,0.441,1.134v16.191h18.396V9.475
		c0-0.461,0.146-0.839,0.439-1.134c0.295-0.293,0.652-0.44,1.072-0.44h5.859c0.461,0,0.828,0.147,1.102,0.44
		c0.273,0.295,0.41,0.673,0.41,1.134v41.014c0,0.42-0.137,0.777-0.41,1.07C588.68,51.854,588.312,52,587.852,52h-5.859
		c-0.42,0-0.777-0.146-1.072-0.441c-0.293-0.293-0.439-0.65-0.439-1.07V33.667h-18.396v16.821c0,0.42-0.148,0.777-0.441,1.07
		c-0.295,0.295-0.672,0.441-1.135,0.441h-5.795C554.293,52,553.936,51.854,553.643,51.559z"/>
	<path fill="#1A1A1A" d="M599.631,51.559c-0.295-0.293-0.441-0.65-0.441-1.07V9.475c0-0.461,0.137-0.839,0.41-1.134
		c0.271-0.293,0.639-0.44,1.102-0.44h4.914c0.799,0,1.408,0.357,1.828,1.07l18.018,27.973V9.475c0-0.461,0.137-0.839,0.41-1.134
		c0.271-0.293,0.639-0.44,1.102-0.44h5.418c0.463,0,0.84,0.147,1.135,0.44c0.293,0.295,0.441,0.673,0.441,1.134v40.95
		c0,0.463-0.148,0.841-0.441,1.134C633.23,51.854,632.873,52,632.453,52h-4.977c-0.84,0-1.471-0.356-1.891-1.071l-17.953-27.342
		v26.901c0,0.42-0.139,0.777-0.41,1.07c-0.273,0.295-0.641,0.441-1.104,0.441h-5.418C600.281,52,599.924,51.854,599.631,51.559z"/>
	<path fill="#1A1A1A" d="M647.322,48.283c-3.193-2.898-4.873-7.203-5.041-12.915c-0.041-1.218-0.062-3.003-0.062-5.355
		c0-2.394,0.021-4.199,0.062-5.418c0.168-5.585,1.891-9.869,5.166-12.852c3.277-2.981,7.707-4.474,13.293-4.474
		c5.545,0,9.965,1.492,13.262,4.474c3.297,2.982,5.029,7.267,5.197,12.852c0.084,2.437,0.127,4.243,0.127,5.418
		c0,1.135-0.043,2.92-0.127,5.355c-0.168,5.712-1.857,10.017-5.07,12.915c-3.213,2.897-7.676,4.347-13.389,4.347
		C654.986,52.63,650.514,51.181,647.322,48.283z M667.418,42.802c1.639-1.679,2.521-4.262,2.646-7.749
		c0.084-2.52,0.127-4.221,0.127-5.103c0-0.966-0.043-2.667-0.127-5.104c-0.125-3.443-1.029-6.017-2.709-7.717
		c-1.68-1.701-3.885-2.552-6.615-2.552c-2.771,0-4.998,0.851-6.678,2.552c-1.68,1.7-2.562,4.273-2.646,7.717
		c-0.041,1.219-0.062,2.92-0.062,5.104c0,2.142,0.021,3.843,0.062,5.103c0.084,3.444,0.955,6.017,2.615,7.718
		c1.658,1.701,3.895,2.552,6.709,2.552S665.781,44.482,667.418,42.802z"/>
	<path fill="#1A1A1A" d="M687.957,51.559c-0.295-0.293-0.441-0.65-0.441-1.07V9.412c0-0.462,0.146-0.829,0.441-1.103
		c0.293-0.272,0.65-0.409,1.07-0.409h5.922c0.461,0,0.828,0.137,1.102,0.409c0.273,0.273,0.41,0.641,0.41,1.103V44.44h19.971
		c0.463,0,0.84,0.147,1.135,0.44c0.293,0.295,0.441,0.651,0.441,1.071v4.536c0,0.42-0.148,0.777-0.441,1.07
		c-0.295,0.295-0.672,0.441-1.135,0.441h-27.404C688.607,52,688.25,51.854,687.957,51.559z"/>
	<path fill="#1A1A1A" d="M727.143,48.283c-3.193-2.898-4.873-7.203-5.041-12.915c-0.041-1.218-0.062-3.003-0.062-5.355
		c0-2.394,0.021-4.199,0.062-5.418c0.168-5.585,1.891-9.869,5.166-12.852c3.277-2.981,7.707-4.474,13.293-4.474
		c5.545,0,9.965,1.492,13.262,4.474c3.297,2.982,5.029,7.267,5.197,12.852c0.084,2.437,0.127,4.243,0.127,5.418
		c0,1.135-0.043,2.92-0.127,5.355c-0.168,5.712-1.857,10.017-5.07,12.915c-3.213,2.897-7.676,4.347-13.389,4.347
		C734.807,52.63,730.334,51.181,727.143,48.283z M747.238,42.802c1.639-1.679,2.521-4.262,2.646-7.749
		c0.084-2.52,0.127-4.221,0.127-5.103c0-0.966-0.043-2.667-0.127-5.104c-0.125-3.443-1.029-6.017-2.709-7.717
		c-1.68-1.701-3.885-2.552-6.615-2.552c-2.771,0-4.998,0.851-6.678,2.552c-1.68,1.7-2.562,4.273-2.646,7.717
		c-0.041,1.219-0.062,2.92-0.062,5.104c0,2.142,0.021,3.843,0.062,5.103c0.084,3.444,0.955,6.017,2.615,7.718
		c1.658,1.701,3.895,2.552,6.709,2.552S745.602,44.482,747.238,42.802z"/>
	<path fill="#1A1A1A" d="M771.021,48.157c-3.213-2.981-4.926-7.14-5.135-12.475c-0.043-1.218-0.062-3.17-0.062-5.858
		c0-2.688,0.02-4.641,0.062-5.859c0.168-5.207,1.891-9.292,5.166-12.253s7.77-4.442,13.482-4.442c3.863,0,7.191,0.662,9.984,1.985
		c2.793,1.322,4.904,2.961,6.332,4.914c1.428,1.952,2.184,3.874,2.268,5.764c0,0.378-0.125,0.693-0.377,0.945
		s-0.59,0.378-1.01,0.378h-6.613c-0.422,0-0.736-0.084-0.945-0.252c-0.211-0.167-0.4-0.44-0.568-0.819
		c-0.588-1.553-1.617-2.876-3.086-3.969c-1.471-1.092-3.465-1.638-5.984-1.638c-2.941,0-5.24,0.787-6.898,2.362
		c-1.66,1.575-2.531,4.022-2.615,7.34c-0.043,1.219-0.062,3.066-0.062,5.544c0,2.437,0.02,4.284,0.062,5.544
		c0.084,3.401,0.965,5.912,2.646,7.528c1.68,1.617,3.988,2.426,6.93,2.426c2.98,0,5.375-0.798,7.182-2.395
		c1.805-1.596,2.709-3.989,2.709-7.182v-1.953h-7.686c-0.42,0-0.777-0.146-1.072-0.441c-0.293-0.293-0.439-0.65-0.439-1.07v-3.465
		c0-0.42,0.146-0.777,0.439-1.071c0.295-0.294,0.652-0.441,1.072-0.441h15.119c0.463,0,0.84,0.147,1.135,0.441
		c0.293,0.294,0.441,0.651,0.441,1.071v6.678c0,3.486-0.777,6.521-2.332,9.104s-3.76,4.567-6.615,5.953s-6.195,2.079-10.016,2.079
		C778.738,52.63,774.234,51.14,771.021,48.157z"/>
	<path fill="#1A1A1A" d="M811.939,51.559c-0.295-0.293-0.441-0.65-0.441-1.07V9.412c0-0.462,0.146-0.829,0.441-1.103
		c0.293-0.272,0.65-0.409,1.07-0.409h6.049c0.461,0,0.828,0.137,1.102,0.409c0.273,0.273,0.41,0.641,0.41,1.103v41.076
		c0,0.42-0.137,0.777-0.41,1.07C819.887,51.854,819.52,52,819.059,52h-6.049C812.59,52,812.232,51.854,811.939,51.559z"/>
	<path fill="#1A1A1A" d="M830.838,51.559c-0.295-0.293-0.441-0.65-0.441-1.07V9.475c0-0.461,0.137-0.839,0.41-1.134
		c0.271-0.293,0.639-0.44,1.102-0.44h27.783c0.463,0,0.84,0.147,1.135,0.44c0.293,0.295,0.441,0.673,0.441,1.134v4.222
		c0,0.462-0.148,0.829-0.441,1.103c-0.295,0.273-0.672,0.409-1.135,0.409h-20.664v11.025h19.279c0.461,0,0.84,0.147,1.133,0.44
		c0.293,0.295,0.441,0.673,0.441,1.134v3.97c0,0.462-0.148,0.829-0.441,1.103s-0.672,0.409-1.133,0.409h-19.279v11.403h21.168
		c0.463,0,0.84,0.137,1.135,0.409c0.293,0.273,0.441,0.641,0.441,1.103v4.284c0,0.462-0.148,0.829-0.441,1.103
		c-0.295,0.273-0.672,0.409-1.135,0.409h-28.287C831.488,52,831.131,51.854,830.838,51.559z"/>
</g>
<g>
	<path fill="#1A1A1A" d="M194.632,97.334c-0.108-0.116-0.162-0.265-0.162-0.445V79.23c0-0.18,0.054-0.328,0.162-0.445
		s0.252-0.176,0.432-0.176h1.35c0.198,0,0.351,0.055,0.459,0.162c0.108,0.108,0.162,0.262,0.162,0.459v17.658
		c0,0.181-0.059,0.329-0.175,0.445c-0.117,0.117-0.266,0.176-0.446,0.176h-1.35C194.884,97.51,194.74,97.451,194.632,97.334z"/>
	<path fill="#1A1A1A" d="M201.611,97.334c-0.118-0.116-0.176-0.265-0.176-0.445V84.091c0-0.18,0.058-0.328,0.176-0.445
		c0.117-0.117,0.265-0.176,0.445-0.176h1.161c0.198,0,0.351,0.054,0.459,0.162s0.162,0.261,0.162,0.459v1.188
		c0.54-0.665,1.165-1.179,1.876-1.538c0.71-0.36,1.597-0.54,2.659-0.54c1.728,0,3.069,0.553,4.023,1.66
		c0.954,1.106,1.431,2.569,1.431,4.388v7.641c0,0.181-0.059,0.329-0.175,0.445c-0.118,0.117-0.266,0.176-0.446,0.176h-1.242
		c-0.18,0-0.329-0.059-0.446-0.176c-0.117-0.116-0.175-0.265-0.175-0.445V89.41c0-1.297-0.315-2.305-0.945-3.024
		s-1.53-1.08-2.7-1.08c-1.152,0-2.07,0.364-2.754,1.094c-0.685,0.729-1.026,1.732-1.026,3.011v7.479
		c0,0.181-0.059,0.329-0.175,0.445c-0.117,0.117-0.266,0.176-0.445,0.176h-1.242C201.876,97.51,201.728,97.451,201.611,97.334z"/>
	<path fill="#1A1A1A" d="M217.946,97.334c-0.117-0.116-0.176-0.265-0.176-0.445V78.961c0-0.198,0.059-0.352,0.176-0.459
		c0.117-0.108,0.265-0.162,0.445-0.162h1.242c0.198,0,0.351,0.054,0.459,0.162c0.108,0.107,0.162,0.261,0.162,0.459v6.291
		c0.521-0.666,1.138-1.175,1.85-1.525c0.71-0.352,1.588-0.526,2.632-0.526c1.728,0,3.073,0.553,4.037,1.66
		c0.962,1.106,1.444,2.569,1.444,4.388v7.641c0,0.181-0.059,0.329-0.175,0.445c-0.118,0.117-0.266,0.176-0.446,0.176h-1.269
		c-0.18,0-0.329-0.059-0.445-0.176c-0.117-0.116-0.176-0.265-0.176-0.445V89.41c0-1.297-0.315-2.305-0.945-3.024
		c-0.63-0.72-1.539-1.08-2.727-1.08c-1.152,0-2.07,0.364-2.754,1.094c-0.684,0.729-1.026,1.732-1.026,3.011v7.479
		c0,0.181-0.059,0.329-0.176,0.445c-0.117,0.117-0.266,0.176-0.445,0.176h-1.242C218.211,97.51,218.062,97.451,217.946,97.334z"/>
	<path fill="#1A1A1A" d="M235.577,97.24c-0.748-0.36-1.341-0.851-1.782-1.472c-0.441-0.621-0.662-1.31-0.662-2.065
		c0-1.188,0.486-2.16,1.458-2.916c0.972-0.756,2.295-1.26,3.969-1.513l4.05-0.566v-0.783c0-1.854-1.071-2.781-3.213-2.781
		c-0.828,0-1.494,0.167-1.998,0.5s-0.873,0.725-1.107,1.174c-0.072,0.181-0.148,0.302-0.229,0.365
		c-0.081,0.062-0.194,0.094-0.337,0.094h-1.053c-0.162,0-0.302-0.058-0.418-0.175c-0.117-0.117-0.175-0.257-0.175-0.419
		c0-0.414,0.193-0.896,0.58-1.444s0.986-1.026,1.796-1.431c0.81-0.405,1.799-0.607,2.97-0.607c2.016,0,3.46,0.468,4.333,1.403
		c0.873,0.937,1.31,2.106,1.31,3.51v8.775c0,0.181-0.059,0.329-0.175,0.445c-0.118,0.117-0.266,0.176-0.446,0.176h-1.188
		c-0.18,0-0.324-0.059-0.432-0.176c-0.108-0.116-0.162-0.265-0.162-0.445v-1.188c-0.396,0.594-0.972,1.089-1.728,1.484
		s-1.728,0.594-2.916,0.594C237.138,97.779,236.324,97.6,235.577,97.24z M241.477,94.647c0.756-0.773,1.134-1.898,1.134-3.375
		v-0.756l-3.159,0.459c-1.296,0.181-2.277,0.486-2.943,0.918c-0.666,0.433-0.999,0.973-0.999,1.62c0,0.738,0.301,1.306,0.905,1.701
		c0.603,0.396,1.318,0.594,2.146,0.594C239.749,95.809,240.72,95.422,241.477,94.647z"/>
	<path fill="#1A1A1A" d="M249.185,97.334c-0.117-0.116-0.176-0.265-0.176-0.445V78.961c0-0.198,0.059-0.352,0.176-0.459
		c0.117-0.108,0.265-0.162,0.445-0.162h1.188c0.18,0,0.329,0.059,0.446,0.176c0.117,0.117,0.175,0.266,0.175,0.445v17.928
		c0,0.181-0.059,0.329-0.175,0.445c-0.117,0.117-0.266,0.176-0.446,0.176h-1.188C249.45,97.51,249.301,97.451,249.185,97.334z"/>
	<path fill="#1A1A1A" d="M256.704,92.785v-7.236h-2.133c-0.18,0-0.324-0.054-0.432-0.162c-0.108-0.108-0.162-0.252-0.162-0.432
		v-0.864c0-0.18,0.054-0.328,0.162-0.445c0.108-0.117,0.252-0.176,0.432-0.176h2.133v-4.509c0-0.18,0.054-0.328,0.162-0.445
		s0.252-0.176,0.432-0.176h1.188c0.18,0,0.328,0.059,0.445,0.176s0.176,0.266,0.176,0.445v4.509h3.348
		c0.18,0,0.328,0.059,0.445,0.176c0.117,0.117,0.175,0.266,0.175,0.445v0.864c0,0.18-0.059,0.323-0.175,0.432
		c-0.117,0.108-0.266,0.162-0.445,0.162h-3.348v7.047c0,0.918,0.148,1.611,0.445,2.079c0.297,0.468,0.806,0.702,1.525,0.702h1.647
		c0.18,0,0.324,0.059,0.432,0.176s0.162,0.266,0.162,0.445v0.891c0,0.181-0.054,0.329-0.162,0.445
		c-0.108,0.117-0.252,0.176-0.432,0.176h-1.836C258.099,97.51,256.704,95.935,256.704,92.785z"/>
	<path fill="#1A1A1A" d="M266.167,97.334c-0.117-0.116-0.176-0.265-0.176-0.445V78.961c0-0.198,0.059-0.352,0.176-0.459
		c0.117-0.108,0.265-0.162,0.445-0.162h1.188c0.18,0,0.329,0.059,0.446,0.176c0.117,0.117,0.175,0.266,0.175,0.445v17.928
		c0,0.181-0.059,0.329-0.175,0.445c-0.117,0.117-0.266,0.176-0.446,0.176h-1.188C266.432,97.51,266.284,97.451,266.167,97.334z"/>
	<path fill="#1A1A1A" d="M272.431,80.648c-0.117-0.117-0.175-0.266-0.175-0.445v-1.404c0-0.18,0.058-0.333,0.175-0.459
		s0.266-0.189,0.446-0.189h1.593c0.18,0,0.333,0.063,0.459,0.189s0.189,0.279,0.189,0.459v1.404c0,0.18-0.063,0.328-0.189,0.445
		s-0.279,0.176-0.459,0.176h-1.593C272.696,80.824,272.548,80.766,272.431,80.648z M272.647,97.334
		c-0.118-0.116-0.176-0.265-0.176-0.445V84.091c0-0.18,0.058-0.328,0.176-0.445c0.117-0.117,0.265-0.176,0.445-0.176h1.188
		c0.18,0,0.328,0.059,0.445,0.176s0.176,0.266,0.176,0.445v12.798c0,0.181-0.059,0.329-0.176,0.445
		c-0.117,0.117-0.266,0.176-0.445,0.176h-1.188C272.912,97.51,272.764,97.451,272.647,97.334z"/>
	<path fill="#1A1A1A" d="M280.058,96.146c-1.08-1.089-1.647-2.614-1.701-4.577l-0.027-1.079l0.027-1.08
		c0.054-1.962,0.621-3.487,1.701-4.577c1.08-1.089,2.583-1.633,4.509-1.633c1.296,0,2.389,0.229,3.28,0.688s1.557,1.03,1.998,1.714
		c0.441,0.685,0.679,1.368,0.715,2.052c0.018,0.162-0.04,0.307-0.175,0.433c-0.135,0.126-0.284,0.188-0.445,0.188h-1.188
		c-0.18,0-0.315-0.04-0.405-0.121c-0.09-0.081-0.18-0.229-0.27-0.445c-0.324-0.882-0.77-1.508-1.336-1.877
		c-0.567-0.368-1.282-0.554-2.146-0.554c-1.134,0-2.034,0.352-2.7,1.054s-1.026,1.772-1.08,3.213l-0.027,0.945l0.027,0.944
		c0.054,1.44,0.414,2.511,1.08,3.213s1.566,1.054,2.7,1.054c0.882,0,1.602-0.185,2.16-0.554c0.558-0.369,0.999-0.994,1.323-1.877
		c0.09-0.216,0.18-0.364,0.27-0.445c0.09-0.081,0.225-0.121,0.405-0.121h1.188c0.162,0,0.311,0.062,0.445,0.188
		c0.135,0.126,0.193,0.271,0.175,0.433c-0.036,0.666-0.274,1.341-0.715,2.024c-0.441,0.685-1.107,1.261-1.998,1.729
		s-1.984,0.701-3.28,0.701C282.641,97.779,281.138,97.235,280.058,96.146z"/>
	<path fill="#1A1A1A" d="M294.003,97.334c-0.117-0.116-0.176-0.265-0.176-0.445V78.961c0-0.198,0.059-0.352,0.176-0.459
		c0.117-0.108,0.265-0.162,0.445-0.162h1.242c0.198,0,0.351,0.054,0.459,0.162c0.108,0.107,0.162,0.261,0.162,0.459v6.291
		c0.521-0.666,1.138-1.175,1.85-1.525c0.71-0.352,1.588-0.526,2.632-0.526c1.728,0,3.073,0.553,4.037,1.66
		c0.962,1.106,1.444,2.569,1.444,4.388v7.641c0,0.181-0.059,0.329-0.175,0.445c-0.118,0.117-0.266,0.176-0.446,0.176h-1.269
		c-0.18,0-0.329-0.059-0.445-0.176c-0.117-0.116-0.176-0.265-0.176-0.445V89.41c0-1.297-0.315-2.305-0.945-3.024
		c-0.63-0.72-1.539-1.08-2.727-1.08c-1.152,0-2.07,0.364-2.754,1.094c-0.684,0.729-1.026,1.732-1.026,3.011v7.479
		c0,0.181-0.059,0.329-0.176,0.445c-0.117,0.117-0.266,0.176-0.445,0.176h-1.242C294.269,97.51,294.12,97.451,294.003,97.334z"/>
	<path fill="#1A1A1A" d="M311.351,96.065c-1.098-1.143-1.701-2.704-1.809-4.685l-0.027-0.918l0.027-0.892
		c0.108-1.943,0.711-3.491,1.809-4.644c1.098-1.151,2.565-1.728,4.401-1.728c1.979,0,3.514,0.63,4.604,1.89
		c1.088,1.26,1.633,2.97,1.633,5.13v0.486c0,0.18-0.059,0.328-0.176,0.445s-0.266,0.176-0.445,0.176h-9.369v0.242
		c0.055,1.171,0.414,2.17,1.08,2.997c0.666,0.828,1.549,1.242,2.646,1.242c0.846,0,1.534-0.166,2.065-0.499
		c0.53-0.333,0.932-0.68,1.202-1.04c0.161-0.216,0.287-0.346,0.377-0.392c0.09-0.044,0.244-0.067,0.459-0.067h1.188
		c0.162,0,0.302,0.045,0.419,0.135c0.116,0.091,0.175,0.208,0.175,0.352c0,0.396-0.243,0.873-0.729,1.431
		c-0.485,0.559-1.174,1.04-2.064,1.444c-0.891,0.405-1.913,0.607-3.064,0.607C313.916,97.779,312.448,97.209,311.351,96.065z
		 M319.531,89.491V89.41c0-1.26-0.342-2.286-1.025-3.078c-0.685-0.792-1.603-1.188-2.754-1.188c-1.171,0-2.089,0.396-2.754,1.188
		c-0.666,0.792-1,1.818-1,3.078v0.081H319.531z"/>
	<path fill="#1A1A1A" d="M334.448,97.078c-1.089-0.468-1.917-1.085-2.483-1.85c-0.567-0.765-0.869-1.589-0.904-2.471
		c0-0.144,0.053-0.271,0.162-0.378c0.107-0.108,0.242-0.162,0.404-0.162h1.322c0.324,0,0.55,0.18,0.676,0.54
		c0.162,0.756,0.625,1.408,1.391,1.957c0.765,0.55,1.858,0.824,3.28,0.824c1.53,0,2.673-0.271,3.429-0.811s1.135-1.286,1.135-2.241
		c0-0.611-0.186-1.115-0.554-1.512c-0.369-0.396-0.919-0.742-1.647-1.039s-1.822-0.662-3.28-1.094
		c-1.386-0.396-2.489-0.819-3.308-1.269c-0.819-0.45-1.436-1.004-1.85-1.661c-0.414-0.656-0.621-1.489-0.621-2.497
		c0-0.973,0.262-1.841,0.783-2.605c0.521-0.766,1.277-1.368,2.268-1.81c0.99-0.44,2.16-0.661,3.511-0.661
		c1.403,0,2.605,0.248,3.604,0.742c0.999,0.495,1.759,1.116,2.281,1.863c0.521,0.747,0.801,1.498,0.837,2.255
		c0,0.161-0.054,0.297-0.161,0.404c-0.109,0.108-0.244,0.162-0.406,0.162h-1.35c-0.145,0-0.279-0.045-0.404-0.135
		c-0.127-0.09-0.217-0.225-0.271-0.405c-0.108-0.773-0.54-1.413-1.296-1.917s-1.701-0.756-2.835-0.756
		c-1.225,0-2.196,0.239-2.916,0.716s-1.08,1.184-1.08,2.119c0,0.631,0.166,1.144,0.499,1.539c0.333,0.396,0.846,0.747,1.539,1.053
		c0.693,0.307,1.705,0.657,3.037,1.054c1.53,0.432,2.732,0.863,3.605,1.296c0.873,0.432,1.525,0.968,1.957,1.606
		s0.648,1.462,0.648,2.471c0,1.691-0.645,3.01-1.931,3.955c-1.287,0.945-3.028,1.417-5.225,1.417
		C336.82,97.779,335.537,97.546,334.448,97.078z"/>
	<path fill="#1A1A1A" d="M349.771,96.146c-1.08-1.089-1.647-2.614-1.7-4.577l-0.027-1.079l0.027-1.08
		c0.053-1.962,0.62-3.487,1.7-4.577c1.08-1.089,2.583-1.633,4.509-1.633c1.297,0,2.39,0.229,3.281,0.688
		c0.891,0.459,1.557,1.03,1.998,1.714c0.44,0.685,0.679,1.368,0.715,2.052c0.018,0.162-0.04,0.307-0.176,0.433
		c-0.135,0.126-0.283,0.188-0.445,0.188h-1.188c-0.18,0-0.315-0.04-0.405-0.121c-0.091-0.081-0.181-0.229-0.271-0.445
		c-0.323-0.882-0.77-1.508-1.336-1.877c-0.566-0.368-1.282-0.554-2.146-0.554c-1.134,0-2.034,0.352-2.7,1.054
		s-1.026,1.772-1.079,3.213L350.5,90.49l0.027,0.944c0.053,1.44,0.413,2.511,1.079,3.213s1.566,1.054,2.7,1.054
		c0.882,0,1.602-0.185,2.16-0.554c0.558-0.369,0.999-0.994,1.322-1.877c0.09-0.216,0.18-0.364,0.271-0.445
		c0.09-0.081,0.226-0.121,0.405-0.121h1.188c0.162,0,0.311,0.062,0.445,0.188c0.136,0.126,0.193,0.271,0.176,0.433
		c-0.036,0.666-0.274,1.341-0.715,2.024c-0.441,0.685-1.107,1.261-1.998,1.729c-0.892,0.468-1.984,0.701-3.281,0.701
		C352.354,97.779,350.851,97.235,349.771,96.146z"/>
	<path fill="#1A1A1A" d="M363.716,97.334c-0.117-0.116-0.176-0.265-0.176-0.445V78.961c0-0.198,0.059-0.352,0.176-0.459
		c0.116-0.108,0.265-0.162,0.445-0.162h1.242c0.198,0,0.351,0.054,0.459,0.162c0.108,0.107,0.162,0.261,0.162,0.459v6.291
		c0.521-0.666,1.138-1.175,1.85-1.525c0.71-0.352,1.588-0.526,2.632-0.526c1.729,0,3.074,0.553,4.037,1.66
		c0.963,1.106,1.444,2.569,1.444,4.388v7.641c0,0.181-0.059,0.329-0.175,0.445c-0.118,0.117-0.267,0.176-0.446,0.176h-1.269
		c-0.181,0-0.329-0.059-0.445-0.176c-0.117-0.116-0.176-0.265-0.176-0.445V89.41c0-1.297-0.315-2.305-0.945-3.024
		c-0.631-0.72-1.539-1.08-2.727-1.08c-1.152,0-2.07,0.364-2.754,1.094c-0.685,0.729-1.026,1.732-1.026,3.011v7.479
		c0,0.181-0.059,0.329-0.176,0.445c-0.117,0.117-0.266,0.176-0.445,0.176h-1.242C363.98,97.51,363.832,97.451,363.716,97.334z"/>
	<path fill="#1A1A1A" d="M382.873,97.348c-0.127-0.107-0.227-0.278-0.297-0.513l-3.834-12.528l-0.055-0.27
		c0-0.162,0.055-0.297,0.162-0.405s0.242-0.162,0.404-0.162h1.107c0.18,0,0.328,0.05,0.445,0.148c0.117,0.1,0.185,0.193,0.203,0.283
		l3.051,10.314l3.24-10.179c0.035-0.145,0.117-0.274,0.242-0.392c0.127-0.117,0.297-0.176,0.514-0.176h0.863
		c0.217,0,0.387,0.059,0.514,0.176c0.125,0.117,0.207,0.247,0.242,0.392l3.24,10.179l3.051-10.314
		c0.019-0.09,0.086-0.184,0.203-0.283c0.117-0.099,0.266-0.148,0.445-0.148h1.107c0.162,0,0.297,0.054,0.404,0.162
		c0.108,0.108,0.162,0.243,0.162,0.405l-0.054,0.27l-3.834,12.528c-0.072,0.234-0.171,0.405-0.297,0.513
		c-0.126,0.108-0.315,0.162-0.567,0.162h-0.972c-0.468,0-0.774-0.225-0.918-0.675l-3.159-9.774l-3.158,9.774
		c-0.145,0.45-0.451,0.675-0.918,0.675h-0.973C383.188,97.51,382.998,97.456,382.873,97.348z"/>
	<path fill="#1A1A1A" d="M402.097,96.065c-1.099-1.143-1.701-2.704-1.81-4.685l-0.026-0.918l0.026-0.892
		c0.108-1.943,0.711-3.491,1.81-4.644c1.098-1.151,2.565-1.728,4.401-1.728c1.979,0,3.514,0.63,4.604,1.89
		c1.088,1.26,1.633,2.97,1.633,5.13v0.486c0,0.18-0.059,0.328-0.176,0.445s-0.266,0.176-0.445,0.176h-9.369v0.242
		c0.055,1.171,0.414,2.17,1.08,2.997c0.666,0.828,1.549,1.242,2.646,1.242c0.846,0,1.534-0.166,2.065-0.499
		c0.53-0.333,0.932-0.68,1.202-1.04c0.161-0.216,0.287-0.346,0.377-0.392c0.09-0.044,0.244-0.067,0.459-0.067h1.188
		c0.162,0,0.302,0.045,0.419,0.135c0.116,0.091,0.175,0.208,0.175,0.352c0,0.396-0.243,0.873-0.729,1.431
		c-0.485,0.559-1.174,1.04-2.064,1.444c-0.891,0.405-1.913,0.607-3.064,0.607C404.662,97.779,403.194,97.209,402.097,96.065z
		 M410.277,89.491V89.41c0-1.26-0.342-2.286-1.025-3.078c-0.685-0.792-1.603-1.188-2.754-1.188c-1.171,0-2.089,0.396-2.754,1.188
		c-0.666,0.792-1,1.818-1,3.078v0.081H410.277z"/>
	<path fill="#1A1A1A" d="M416.204,97.334c-0.118-0.116-0.176-0.265-0.176-0.445V84.118c0-0.18,0.058-0.333,0.176-0.459
		c0.116-0.126,0.265-0.189,0.445-0.189h1.134c0.198,0,0.355,0.059,0.473,0.176s0.176,0.274,0.176,0.473v1.188
		c0.738-1.224,1.988-1.836,3.753-1.836h1.053c0.198,0,0.351,0.054,0.459,0.162s0.162,0.261,0.162,0.459v0.999
		c0,0.18-0.054,0.328-0.162,0.445s-0.261,0.176-0.459,0.176h-1.539c-0.989,0-1.769,0.288-2.335,0.864
		c-0.567,0.576-0.852,1.358-0.852,2.349v7.965c0,0.181-0.062,0.329-0.188,0.445c-0.126,0.117-0.279,0.176-0.459,0.176h-1.215
		C416.469,97.51,416.32,97.451,416.204,97.334z"/>
	<path fill="#1A1A1A" d="M426.383,102.478c-0.117-0.107-0.176-0.261-0.176-0.459V84.091c0-0.198,0.059-0.351,0.176-0.459
		s0.266-0.162,0.445-0.162h1.135c0.197,0,0.351,0.054,0.459,0.162c0.107,0.108,0.162,0.261,0.162,0.459v1.188
		c1.043-1.386,2.527-2.078,4.454-2.078c1.89,0,3.308,0.599,4.253,1.795c0.945,1.197,1.444,2.723,1.498,4.576
		c0.018,0.199,0.027,0.505,0.027,0.919s-0.01,0.72-0.027,0.918c-0.054,1.836-0.553,3.356-1.498,4.562s-2.363,1.809-4.253,1.809
		c-1.927,0-3.384-0.684-4.374-2.052v6.291c0,0.18-0.059,0.328-0.176,0.445s-0.266,0.176-0.445,0.176h-1.215
		C426.648,102.64,426.5,102.586,426.383,102.478z M435.36,94.459c0.594-0.811,0.918-1.872,0.972-3.187
		c0.018-0.18,0.027-0.44,0.027-0.782c0-3.456-1.278-5.185-3.834-5.185c-1.26,0-2.21,0.419-2.849,1.256
		c-0.64,0.837-0.977,1.822-1.013,2.956c-0.018,0.198-0.027,0.55-0.027,1.053c0,0.505,0.01,0.855,0.027,1.054
		c0.036,1.098,0.383,2.048,1.039,2.849c0.658,0.801,1.598,1.201,2.822,1.201C433.821,95.674,434.766,95.269,435.36,94.459z"/>
	<path fill="#1A1A1A" d="M443.486,96.119c-0.936-1.106-1.403-2.578-1.403-4.414v-7.614c0-0.18,0.058-0.328,0.175-0.445
		s0.266-0.176,0.446-0.176h1.241c0.18,0,0.328,0.059,0.446,0.176c0.116,0.117,0.175,0.266,0.175,0.445v7.479
		c0,2.736,1.188,4.104,3.564,4.104c1.152,0,2.065-0.364,2.74-1.094c0.676-0.729,1.013-1.732,1.013-3.011v-7.479
		c0-0.18,0.058-0.328,0.176-0.445c0.116-0.117,0.265-0.176,0.445-0.176h1.242c0.18,0,0.328,0.059,0.445,0.176
		c0.116,0.117,0.175,0.266,0.175,0.445v12.798c0,0.181-0.059,0.329-0.175,0.445c-0.117,0.117-0.266,0.176-0.445,0.176h-1.161
		c-0.18,0-0.328-0.059-0.445-0.176c-0.117-0.116-0.176-0.265-0.176-0.445v-1.215c-0.522,0.702-1.134,1.229-1.836,1.579
		c-0.702,0.352-1.594,0.526-2.673,0.526C445.746,97.779,444.422,97.227,443.486,96.119z"/>
	<path fill="#1A1A1A" d="M458.594,97.334c-0.118-0.116-0.176-0.265-0.176-0.445V84.091c0-0.18,0.058-0.328,0.176-0.445
		c0.116-0.117,0.265-0.176,0.445-0.176h1.16c0.198,0,0.352,0.054,0.459,0.162c0.108,0.108,0.162,0.261,0.162,0.459v1.188
		c0.54-0.665,1.165-1.179,1.877-1.538c0.711-0.36,1.597-0.54,2.659-0.54c1.729,0,3.069,0.553,4.023,1.66
		c0.953,1.106,1.431,2.569,1.431,4.388v7.641c0,0.181-0.059,0.329-0.176,0.445c-0.117,0.117-0.266,0.176-0.445,0.176h-1.242
		c-0.18,0-0.328-0.059-0.445-0.176c-0.117-0.116-0.176-0.265-0.176-0.445V89.41c0-1.297-0.314-2.305-0.944-3.024
		c-0.631-0.72-1.53-1.08-2.7-1.08c-1.152,0-2.07,0.364-2.754,1.094c-0.685,0.729-1.026,1.732-1.026,3.011v7.479
		c0,0.181-0.059,0.329-0.175,0.445c-0.118,0.117-0.267,0.176-0.446,0.176h-1.241C458.858,97.51,458.71,97.451,458.594,97.334z"/>
	<path fill="#1A1A1A" d="M474.928,97.334c-0.117-0.116-0.176-0.265-0.176-0.445V78.961c0-0.198,0.059-0.352,0.176-0.459
		c0.117-0.108,0.266-0.162,0.445-0.162h1.161c0.18,0,0.328,0.059,0.445,0.176s0.176,0.266,0.176,0.445v9.423l5.4-4.455
		c0.27-0.198,0.459-0.324,0.566-0.378c0.108-0.054,0.279-0.081,0.513-0.081h1.351c0.162,0,0.292,0.05,0.392,0.148
		c0.099,0.1,0.148,0.239,0.148,0.419c0,0.162-0.1,0.333-0.297,0.513l-6.318,5.184l6.993,6.696c0.197,0.198,0.297,0.369,0.297,0.513
		c0,0.162-0.05,0.298-0.148,0.405c-0.1,0.108-0.229,0.162-0.392,0.162h-1.323c-0.27,0-0.463-0.027-0.58-0.081s-0.283-0.18-0.5-0.378
		l-6.102-5.778v5.616c0,0.181-0.059,0.329-0.176,0.445c-0.117,0.117-0.266,0.176-0.445,0.176h-1.161
		C475.193,97.51,475.045,97.451,474.928,97.334z"/>
	<path fill="#1A1A1A" d="M489.791,92.785v-7.236h-2.133c-0.181,0-0.324-0.054-0.433-0.162c-0.107-0.108-0.162-0.252-0.162-0.432
		v-0.864c0-0.18,0.055-0.328,0.162-0.445c0.108-0.117,0.252-0.176,0.433-0.176h2.133v-4.509c0-0.18,0.054-0.328,0.162-0.445
		c0.107-0.117,0.252-0.176,0.432-0.176h1.188c0.18,0,0.328,0.059,0.445,0.176c0.116,0.117,0.175,0.266,0.175,0.445v4.509h3.349
		c0.18,0,0.328,0.059,0.445,0.176s0.176,0.266,0.176,0.445v0.864c0,0.18-0.059,0.323-0.176,0.432s-0.266,0.162-0.445,0.162h-3.349
		v7.047c0,0.918,0.148,1.611,0.446,2.079c0.297,0.468,0.805,0.702,1.525,0.702h1.646c0.18,0,0.324,0.059,0.433,0.176
		c0.107,0.117,0.162,0.266,0.162,0.445v0.891c0,0.181-0.055,0.329-0.162,0.445c-0.108,0.117-0.253,0.176-0.433,0.176h-1.836
		C491.186,97.51,489.791,95.935,489.791,92.785z"/>
	<path fill="#1A1A1A" d="M500.212,96.065c-1.098-1.143-1.7-2.704-1.809-4.685l-0.027-0.918l0.027-0.892
		c0.108-1.943,0.711-3.491,1.809-4.644c1.099-1.151,2.565-1.728,4.401-1.728c1.979,0,3.515,0.63,4.604,1.89s1.634,2.97,1.634,5.13
		v0.486c0,0.18-0.059,0.328-0.176,0.445s-0.266,0.176-0.445,0.176h-9.369v0.242c0.054,1.171,0.414,2.17,1.08,2.997
		c0.666,0.828,1.548,1.242,2.646,1.242c0.847,0,1.535-0.166,2.066-0.499c0.53-0.333,0.931-0.68,1.201-1.04
		c0.162-0.216,0.287-0.346,0.378-0.392c0.09-0.044,0.243-0.067,0.459-0.067h1.188c0.162,0,0.302,0.045,0.419,0.135
		c0.117,0.091,0.176,0.208,0.176,0.352c0,0.396-0.243,0.873-0.729,1.431c-0.485,0.559-1.174,1.04-2.065,1.444
		c-0.891,0.405-1.913,0.607-3.064,0.607C502.777,97.779,501.311,97.209,500.212,96.065z M508.394,89.491V89.41
		c0-1.26-0.343-2.286-1.026-3.078c-0.685-0.792-1.603-1.188-2.754-1.188c-1.17,0-2.088,0.396-2.754,1.188s-0.999,1.818-0.999,3.078
		v0.081H508.394z"/>
	<path fill="#1A1A1A" d="M523.945,96.835l-5.022-12.528c-0.018-0.054-0.026-0.144-0.026-0.27c0-0.162,0.054-0.297,0.162-0.405
		c0.107-0.108,0.233-0.162,0.378-0.162h1.242c0.287,0,0.503,0.145,0.647,0.432l4.158,10.773l4.158-10.773
		c0.035-0.107,0.112-0.206,0.229-0.297c0.116-0.09,0.256-0.135,0.418-0.135h1.242c0.144,0,0.27,0.054,0.378,0.162
		s0.162,0.243,0.162,0.405l-0.054,0.27l-4.995,12.528c-0.198,0.45-0.531,0.675-0.999,0.675h-1.08
		C524.476,97.51,524.144,97.285,523.945,96.835z"/>
	<path fill="#1A1A1A" d="M535.568,96.105c-1.071-1.115-1.643-2.601-1.715-4.455l-0.026-1.16l0.026-1.161
		c0.072-1.854,0.652-3.339,1.742-4.455c1.089-1.116,2.605-1.674,4.549-1.674c1.944,0,3.461,0.558,4.55,1.674
		s1.669,2.601,1.741,4.455c0.036,0.396,0.055,0.782,0.055,1.161c0,0.378-0.019,0.765-0.055,1.16
		c-0.072,1.854-0.644,3.34-1.714,4.455c-1.071,1.116-2.597,1.674-4.577,1.674C538.165,97.779,536.639,97.222,535.568,96.105z
		 M542.886,94.661c0.675-0.729,1.039-1.777,1.093-3.146c0.018-0.18,0.027-0.521,0.027-1.025s-0.01-0.847-0.027-1.026
		c-0.054-1.368-0.418-2.417-1.093-3.146c-0.676-0.729-1.589-1.094-2.741-1.094c-1.151,0-2.065,0.364-2.74,1.094
		c-0.675,0.729-1.039,1.777-1.094,3.146l-0.026,1.026l0.026,1.025c0.055,1.368,0.419,2.417,1.094,3.146
		c0.675,0.729,1.589,1.094,2.74,1.094C541.297,95.755,542.21,95.391,542.886,94.661z"/>
	<path fill="#1A1A1A" d="M550.066,97.334c-0.117-0.116-0.175-0.265-0.175-0.445V84.091c0-0.18,0.058-0.328,0.175-0.445
		s0.266-0.176,0.446-0.176h1.16c0.198,0,0.352,0.054,0.459,0.162c0.108,0.108,0.162,0.261,0.162,0.459v1.188
		c0.54-0.665,1.165-1.179,1.877-1.538c0.711-0.36,1.597-0.54,2.659-0.54c1.729,0,3.069,0.553,4.023,1.66
		c0.953,1.106,1.431,2.569,1.431,4.388v7.641c0,0.181-0.059,0.329-0.176,0.445c-0.117,0.117-0.266,0.176-0.445,0.176h-1.242
		c-0.18,0-0.328-0.059-0.445-0.176c-0.117-0.116-0.176-0.265-0.176-0.445V89.41c0-1.297-0.314-2.305-0.944-3.024
		c-0.631-0.72-1.53-1.08-2.7-1.08c-1.152,0-2.07,0.364-2.754,1.094c-0.685,0.729-1.026,1.732-1.026,3.011v7.479
		c0,0.181-0.059,0.329-0.175,0.445c-0.118,0.117-0.267,0.176-0.446,0.176h-1.241C550.332,97.51,550.184,97.451,550.066,97.334z"/>
	<path fill="#1A1A1A" d="M575.244,95.728v1.161c0,0.181-0.059,0.329-0.175,0.445c-0.118,0.117-0.267,0.176-0.446,0.176h-1.134
		c-0.18,0-0.328-0.059-0.445-0.176c-0.117-0.116-0.176-0.265-0.176-0.445V78.961c0-0.198,0.059-0.352,0.176-0.459
		c0.117-0.108,0.266-0.162,0.445-0.162h1.215c0.18,0,0.328,0.059,0.446,0.176c0.116,0.117,0.175,0.266,0.175,0.445v6.237
		c1.008-1.332,2.466-1.998,4.374-1.998c1.891,0,3.308,0.616,4.253,1.849c0.944,1.233,1.444,2.777,1.498,4.631
		c0.018,0.198,0.027,0.469,0.027,0.811s-0.01,0.611-0.027,0.81c-0.054,1.854-0.554,3.397-1.498,4.631
		c-0.945,1.232-2.362,1.849-4.253,1.849C577.756,97.779,576.271,97.096,575.244,95.728z M582.021,94.459
		c0.594-0.811,0.918-1.872,0.972-3.187c0.018-0.18,0.027-0.44,0.027-0.782c0-3.456-1.278-5.185-3.834-5.185
		c-1.225,0-2.165,0.401-2.821,1.201c-0.657,0.802-1.004,1.751-1.04,2.849c-0.018,0.198-0.026,0.55-0.026,1.054
		c0,0.485,0.009,0.828,0.026,1.025c0.036,1.152,0.374,2.146,1.013,2.983s1.588,1.256,2.849,1.256
		C580.482,95.674,581.428,95.269,582.021,94.459z"/>
	<path fill="#1A1A1A" d="M589.081,97.334c-0.117-0.116-0.176-0.265-0.176-0.445V78.961c0-0.198,0.059-0.352,0.176-0.459
		c0.117-0.108,0.266-0.162,0.445-0.162h1.188c0.18,0,0.328,0.059,0.445,0.176s0.176,0.266,0.176,0.445v17.928
		c0,0.181-0.059,0.329-0.176,0.445c-0.117,0.117-0.266,0.176-0.445,0.176h-1.188C589.347,97.51,589.198,97.451,589.081,97.334z"/>
	<path fill="#1A1A1A" d="M596.506,96.105c-1.071-1.115-1.643-2.601-1.715-4.455l-0.026-1.16l0.026-1.161
		c0.072-1.854,0.652-3.339,1.742-4.455c1.089-1.116,2.605-1.674,4.549-1.674c1.944,0,3.461,0.558,4.55,1.674
		s1.669,2.601,1.741,4.455c0.036,0.396,0.055,0.782,0.055,1.161c0,0.378-0.019,0.765-0.055,1.16
		c-0.072,1.854-0.644,3.34-1.714,4.455c-1.071,1.116-2.597,1.674-4.577,1.674C599.103,97.779,597.576,97.222,596.506,96.105z
		 M603.823,94.661c0.675-0.729,1.039-1.777,1.093-3.146c0.018-0.18,0.027-0.521,0.027-1.025s-0.01-0.847-0.027-1.026
		c-0.054-1.368-0.418-2.417-1.093-3.146c-0.676-0.729-1.589-1.094-2.741-1.094c-1.151,0-2.065,0.364-2.74,1.094
		c-0.675,0.729-1.039,1.777-1.094,3.146l-0.026,1.026l0.026,1.025c0.055,1.368,0.419,2.417,1.094,3.146
		c0.675,0.729,1.589,1.094,2.74,1.094C602.234,95.755,603.147,95.391,603.823,94.661z"/>
	<path fill="#1A1A1A" d="M611.937,96.146c-1.08-1.089-1.646-2.614-1.701-4.577l-0.026-1.079l0.026-1.08
		c0.055-1.962,0.621-3.487,1.701-4.577c1.08-1.089,2.583-1.633,4.509-1.633c1.296,0,2.39,0.229,3.281,0.688
		c0.891,0.459,1.557,1.03,1.998,1.714c0.44,0.685,0.679,1.368,0.715,2.052c0.018,0.162-0.04,0.307-0.175,0.433
		c-0.136,0.126-0.284,0.188-0.446,0.188h-1.188c-0.181,0-0.315-0.04-0.405-0.121s-0.18-0.229-0.27-0.445
		c-0.324-0.882-0.77-1.508-1.337-1.877c-0.567-0.368-1.282-0.554-2.146-0.554c-1.134,0-2.034,0.352-2.7,1.054
		s-1.025,1.772-1.08,3.213l-0.026,0.945l0.026,0.944c0.055,1.44,0.414,2.511,1.08,3.213s1.566,1.054,2.7,1.054
		c0.882,0,1.602-0.185,2.16-0.554c0.558-0.369,0.999-0.994,1.323-1.877c0.09-0.216,0.18-0.364,0.27-0.445s0.225-0.121,0.405-0.121
		h1.188c0.162,0,0.311,0.062,0.446,0.188c0.135,0.126,0.192,0.271,0.175,0.433c-0.036,0.666-0.274,1.341-0.715,2.024
		c-0.441,0.685-1.107,1.261-1.998,1.729c-0.892,0.468-1.985,0.701-3.281,0.701C614.52,97.779,613.017,97.235,611.937,96.146z"/>
	<path fill="#1A1A1A" d="M625.882,97.334c-0.117-0.116-0.176-0.265-0.176-0.445V78.961c0-0.198,0.059-0.352,0.176-0.459
		c0.117-0.108,0.266-0.162,0.445-0.162h1.161c0.18,0,0.328,0.059,0.445,0.176s0.176,0.266,0.176,0.445v9.423l5.4-4.455
		c0.27-0.198,0.459-0.324,0.566-0.378c0.108-0.054,0.279-0.081,0.513-0.081h1.351c0.162,0,0.292,0.05,0.392,0.148
		c0.099,0.1,0.148,0.239,0.148,0.419c0,0.162-0.1,0.333-0.297,0.513l-6.318,5.184l6.993,6.696c0.197,0.198,0.297,0.369,0.297,0.513
		c0,0.162-0.05,0.298-0.148,0.405c-0.1,0.108-0.229,0.162-0.392,0.162h-1.323c-0.27,0-0.463-0.027-0.58-0.081s-0.283-0.18-0.5-0.378
		l-6.102-5.778v5.616c0,0.181-0.059,0.329-0.176,0.445c-0.117,0.117-0.266,0.176-0.445,0.176h-1.161
		C626.147,97.51,625.999,97.451,625.882,97.334z"/>
	<path fill="#1A1A1A" d="M640.043,97.334c-0.108-0.116-0.162-0.265-0.162-0.445V79.23c0-0.18,0.054-0.328,0.162-0.445
		s0.252-0.176,0.432-0.176h1.351c0.18,0,0.323,0.059,0.432,0.176s0.162,0.266,0.162,0.445v16.012h9.018
		c0.198,0,0.355,0.059,0.473,0.175c0.117,0.117,0.176,0.266,0.176,0.445v1.026c0,0.181-0.063,0.329-0.189,0.445
		c-0.126,0.117-0.279,0.176-0.459,0.176h-10.962C640.295,97.51,640.151,97.451,640.043,97.334z"/>
	<path fill="#1A1A1A" d="M653.354,97.348c-0.108-0.107-0.162-0.233-0.162-0.378l0.054-0.297l6.696-17.469
		c0.144-0.396,0.432-0.595,0.864-0.595h1.728c0.433,0,0.72,0.198,0.864,0.595l6.696,17.469l0.054,0.297
		c0,0.145-0.059,0.271-0.176,0.378c-0.117,0.108-0.247,0.162-0.392,0.162h-1.269c-0.181,0-0.329-0.05-0.445-0.148
		c-0.117-0.099-0.194-0.202-0.229-0.311l-1.513-3.888h-8.937l-1.485,3.888c-0.145,0.307-0.369,0.459-0.675,0.459h-1.296
		C653.587,97.51,653.461,97.456,653.354,97.348z M657.971,90.922h7.397l-3.699-9.693L657.971,90.922z"/>
	<path fill="#1A1A1A" d="M673.226,97.334c-0.108-0.116-0.162-0.265-0.162-0.445V79.258c0-0.198,0.054-0.355,0.162-0.473
		s0.252-0.176,0.432-0.176h7.371c1.908,0,3.349,0.459,4.32,1.377s1.458,2.115,1.458,3.592c0,1.008-0.234,1.85-0.702,2.524
		c-0.469,0.675-1.018,1.165-1.647,1.472c0.774,0.378,1.422,0.963,1.944,1.755s0.783,1.7,0.783,2.727
		c0,1.009-0.229,1.927-0.688,2.754c-0.459,0.828-1.139,1.485-2.039,1.972c-0.899,0.485-1.971,0.729-3.213,0.729h-7.587
		C673.478,97.51,673.334,97.451,673.226,97.334z M680.623,86.629c1.17,0,2.062-0.266,2.674-0.797
		c0.611-0.53,0.918-1.273,0.918-2.228c0-0.936-0.302-1.646-0.905-2.133c-0.603-0.486-1.498-0.729-2.687-0.729h-5.021v5.886H680.623z
		 M680.894,95.377c1.151,0,2.057-0.311,2.714-0.932c0.656-0.621,0.985-1.418,0.985-2.39c0-0.989-0.329-1.791-0.985-2.403
		c-0.657-0.611-1.562-0.918-2.714-0.918h-5.292v6.643H680.894z"/>
</g>
</svg>
