<svg width="198" height="41" viewBox="0 0 198 41" xmlns="http://www.w3.org/2000/svg" xmlns:xlink="http://www.w3.org/1999/xlink">
  <defs>
    <path id="a" d="M0 18.828h136.132V.28H0V18.83z"/>
  </defs>
  <g fill="none" fill-rule="evenodd">
    <path d="M164.873 37.266c0-1.866-1.476-3.378-3.295-3.378-1.82 0-3.295 1.512-3.295 3.378 0 1.865 1.476 3.377 3.295 3.377 1.82 0 3.295-1.512 3.295-3.377M175.855 37.266c0-1.866-1.476-3.378-3.295-3.378-1.82 0-3.295 1.512-3.295 3.378 0 1.865 1.476 3.377 3.295 3.377 1.82 0 3.295-1.512 3.295-3.377M186.838 37.266c0-1.866-1.476-3.378-3.295-3.378-1.82 0-3.295 1.512-3.295 3.378 0 1.865 1.476 3.377 3.295 3.377 1.82 0 3.295-1.512 3.295-3.377M164.873 26.008c0-1.865-1.476-3.377-3.295-3.377-1.82 0-3.295 1.513-3.295 3.378 0 1.865 1.476 3.377 3.295 3.377 1.82 0 3.295-1.512 3.295-3.377M186.838 26.008c0-1.865-1.476-3.377-3.295-3.377-1.82 0-3.295 1.513-3.295 3.378 0 1.865 1.476 3.377 3.295 3.377 1.82 0 3.295-1.512 3.295-3.377M197.82 26.008c0-1.865-1.476-3.377-3.295-3.377-1.82 0-3.295 1.513-3.295 3.378 0 1.865 1.476 3.377 3.295 3.377 1.82 0 3.295-1.512 3.295-3.377M164.873 14.75c0-1.865-1.476-3.377-3.295-3.377-1.82 0-3.295 1.512-3.295 3.377 0 1.866 1.476 3.378 3.295 3.378 1.82 0 3.295-1.512 3.295-3.378M175.855 14.75c0-1.865-1.476-3.377-3.295-3.377-1.82 0-3.295 1.512-3.295 3.377 0 1.866 1.476 3.378 3.295 3.378 1.82 0 3.295-1.512 3.295-3.378M197.82 14.75c0-1.865-1.476-3.377-3.295-3.377-1.82 0-3.295 1.512-3.295 3.377 0 1.866 1.476 3.378 3.295 3.378 1.82 0 3.295-1.512 3.295-3.378M175.855 3.493c0-1.866-1.476-3.378-3.295-3.378-1.82 0-3.295 1.512-3.295 3.378 0 1.865 1.476 3.377 3.295 3.377 1.82 0 3.295-1.512 3.295-3.377M186.838 3.493c0-1.866-1.476-3.378-3.295-3.378-1.82 0-3.295 1.512-3.295 3.378 0 1.865 1.476 3.377 3.295 3.377 1.82 0 3.295-1.512 3.295-3.377M197.82 3.493c0-1.866-1.476-3.378-3.295-3.378-1.82 0-3.295 1.512-3.295 3.378 0 1.865 1.476 3.377 3.295 3.377 1.82 0 3.295-1.512 3.295-3.377" fill="#3582C1"/>
    <g transform="translate(0 22.057)">
      <mask id="b" fill="#fff">
        <use xlink:href="#a"/>
      </mask>
      <path d="M.684.54C.497.54.338.61.204.744c-.137.137-.204.3-.204.49v16.64c0 .188.067.352.203.49.135.137.294.205.48.205h3.32c.185 0 .346-.068.48-.206.137-.137.204-.3.204-.49v-5.563h7.068c.187 0 .346-.067.48-.205.137-.138.205-.3.205-.49v-2.73c0-.19-.068-.35-.204-.49-.135-.137-.294-.206-.48-.206h-7.07V4.66h7.576c.185 0 .346-.07.482-.206.135-.136.202-.3.202-.49v-2.73c0-.188-.067-.352-.202-.49-.136-.135-.297-.205-.482-.205H.684zM19.48 18.57c.185 0 .346-.068.48-.206.137-.137.204-.3.204-.49V1.235c0-.188-.067-.352-.203-.49-.134-.135-.295-.205-.48-.205h-3.32c-.186 0-.345.07-.48.205-.136.137-.203.3-.203.49v16.64c0 .188.067.352.202.49.135.137.294.205.48.205h3.32zm18.33 0c.185 0 .346-.068.48-.206.137-.137.203-.3.203-.49V1.235c0-.188-.066-.352-.202-.49-.134-.135-.295-.205-.48-.205h-3.32c-.186 0-.345.07-.48.205-.136.137-.203.3-.203.49V9.94l-5.802-8.81c-.05-.084-.165-.204-.342-.36-.178-.154-.41-.23-.696-.23H24.33c-.185 0-.345.07-.48.205-.135.137-.202.3-.202.49v16.64c0 .188.067.352.202.49.135.137.295.205.48.205h3.32c.186 0 .347-.068.482-.206.134-.137.202-.3.202-.49V9.17l5.802 8.81c.05.085.165.205.342.36.178.155.41.232.696.232h2.636zM47.368.54c-.338 0-.596.093-.772.283-.178.188-.3.378-.368.566l-5.522 16.227c-.07.172-.1.3-.1.387 0 .153.053.287.162.398.11.113.24.168.393.168h3.194c.337 0 .578-.072.722-.22.142-.145.232-.287.265-.424l.71-2.138h6.74l.71 2.138c.033.137.12.28.265.425.144.148.385.22.722.22h3.193c.152 0 .283-.055.393-.168.11-.11.164-.245.164-.398 0-.087-.035-.215-.102-.387L52.613 1.39c-.07-.19-.19-.38-.368-.567-.176-.19-.434-.284-.772-.284h-4.105zm2.053 5.074l2.053 6.18h-4.105l2.053-6.18zM74.51 18.57c.185 0 .346-.068.48-.206.136-.137.203-.3.203-.49V1.235c0-.188-.067-.352-.202-.49-.134-.135-.295-.205-.48-.205h-3.32c-.186 0-.346.07-.48.205-.136.137-.203.3-.203.49V9.94l-5.802-8.81c-.05-.084-.165-.204-.342-.36-.178-.154-.41-.23-.696-.23H61.03c-.185 0-.345.07-.48.205-.135.137-.202.3-.202.49v16.64c0 .188.067.352.202.49.135.137.295.205.48.205h3.32c.185 0 .346-.068.482-.206.135-.137.202-.3.202-.49V9.17l5.802 8.81c.05.085.165.205.342.36.178.155.41.232.696.232h2.636zm8.506-12.313c.12-.36.305-.678.56-.953.25-.274.573-.493.96-.656.39-.164.87-.245 1.445-.245.575 0 1.048.068 1.42.206.37.136.675.304.91.5.238.198.42.418.547.657.126.242.223.465.29.67.086.276.178.47.28.58.1.112.294.168.582.168h3.318c.153 0 .282-.056.393-.168.11-.11.165-.245.165-.4-.017-.874-.228-1.698-.632-2.472-.406-.773-.963-1.442-1.673-2.01-.71-.566-1.54-1.017-2.495-1.35C88.13.448 87.095.28 85.98.28c-1.216 0-2.304.187-3.267.556-.963.37-1.778.87-2.444 1.506-.67.636-1.19 1.38-1.56 2.228-.372.85-.575 1.748-.608 2.692-.034.74-.05 1.512-.05 2.32 0 .805.016 1.56.05 2.265.05.944.256 1.842.62 2.693.363.848.883 1.59 1.558 2.227.677.636 1.49 1.138 2.446 1.506.953.37 2.038.555 3.255.555 1.116 0 2.15-.168 3.105-.503.954-.334 1.786-.785 2.495-1.352.71-.567 1.267-1.236 1.673-2.01.404-.773.615-1.597.632-2.47 0-.156-.054-.29-.164-.4-.11-.113-.24-.17-.392-.17h-3.32c-.287 0-.48.057-.582.17-.1.11-.193.305-.28.578-.066.207-.163.43-.29.67-.126.242-.308.46-.545.658-.235.197-.54.365-.91.502-.372.138-.845.206-1.42.206-.573 0-1.055-.08-1.444-.245-.387-.16-.71-.38-.96-.655-.255-.275-.44-.592-.56-.953-.118-.36-.193-.738-.227-1.134-.02-.223-.03-.536-.04-.94-.01-.404-.01-.815-.01-1.236 0-.42 0-.83.01-1.224s.02-.704.04-.927c.033-.395.108-.773.226-1.133zm17.467 12.313c.185 0 .346-.068.482-.206.134-.137.202-.3.202-.49V1.235c0-.188-.068-.352-.202-.49-.136-.135-.297-.205-.482-.205h-3.32c-.185 0-.345.07-.48.205-.136.137-.204.3-.204.49v16.64c0 .188.067.352.203.49.135.137.295.205.48.205h3.32zm9.57-18.03c-.336 0-.594.093-.77.283-.18.188-.302.378-.368.566l-5.525 16.227c-.066.172-.1.3-.1.387 0 .153.055.287.165.398.11.113.24.168.393.168h3.19c.34 0 .58-.072.723-.22.145-.145.233-.287.267-.424l.71-2.138h6.74l.708 2.138c.034.137.122.28.266.425.144.148.385.22.724.22h3.192c.15 0 .282-.055.39-.168.11-.11.167-.245.167-.398 0-.087-.034-.215-.1-.387L115.298 1.39c-.07-.19-.192-.38-.37-.567-.177-.19-.434-.284-.772-.284h-4.104zm2.054 5.074l2.05 6.18h-4.103l2.053-6.18zm15.613 8.834V1.234c0-.188-.068-.352-.203-.49-.136-.135-.295-.205-.482-.205h-3.317c-.187 0-.348.07-.482.205-.135.137-.204.3-.204.49v16.64c0 .188.07.352.204.49.134.137.295.205.482.205h11.73c.185 0 .345-.068.48-.206.135-.137.204-.3.204-.49v-2.73c0-.19-.07-.35-.204-.49-.135-.136-.295-.206-.48-.206h-7.728z" fill="#134155" mask="url(#b)"/>
    </g>
    <path d="M4.7.45c-.886.302-1.643.71-2.268 1.224-.625.516-1.1 1.108-1.432 1.778-.33.67-.494 1.374-.494 2.11 0 1.478.402 2.66 1.204 3.544.802.884 2.074 1.516 3.813 1.892.93.208 1.735.378 2.42.516.684.138 1.245.28 1.684.424.44.147.77.306.988.477.22.172.33.387.33.644 0 .515-.3.87-.9 1.068-.6.2-1.347.297-2.242.297-.507 0-.934-.06-1.28-.18s-.633-.262-.86-.425c-.228-.164-.41-.323-.546-.477-.135-.155-.237-.266-.303-.334-.136-.122-.27-.213-.406-.272-.136-.06-.32-.09-.557-.09H.533c-.136 0-.258.055-.368.167-.11.11-.164.244-.164.4.016.653.22 1.296.61 1.93.386.637.923 1.208 1.607 1.713.683.507 1.498.916 2.444 1.224.947.31 1.994.463 3.143.463 1.132 0 2.174-.127 3.13-.385.953-.258 1.78-.63 2.48-1.12.702-.49 1.248-1.078 1.635-1.765.39-.686.584-1.468.584-2.345 0-.806-.115-1.506-.343-2.098-.23-.592-.575-1.108-1.04-1.547-.464-.437-1.042-.802-1.734-1.093-.693-.293-1.505-.533-2.433-.722-.93-.19-1.705-.35-2.33-.49-.626-.137-1.128-.28-1.508-.425-.38-.145-.65-.304-.81-.476-.16-.172-.24-.388-.24-.644 0-.258.07-.472.214-.645.143-.17.328-.303.556-.4.228-.093.49-.16.786-.204.295-.044.603-.065.925-.065.438 0 .81.048 1.114.143.305.095.56.207.76.334.204.13.36.255.47.374.11.12.19.208.24.26.153.136.3.24.444.308.144.07.333.103.57.103h3.318c.136 0 .258-.055.368-.167.11-.11.165-.244.165-.398-.017-.55-.212-1.125-.582-1.726-.372-.602-.888-1.15-1.546-1.65-.66-.498-1.44-.906-2.343-1.223C9.75.16 8.756 0 7.677 0c-1.1 0-2.09.15-2.977.45zM17.732.26c-.187 0-.346.068-.48.206-.137.137-.204.3-.204.49v2.73c0 .19.067.35.203.49.136.136.295.204.482.204h4.46v13.214c0 .19.065.354.2.49.136.138.297.207.482.207h3.32c.186 0 .345-.07.48-.208.136-.136.203-.3.203-.49V4.378h4.46c.185 0 .346-.068.48-.205.135-.138.204-.3.204-.49V.953c0-.19-.068-.352-.202-.49-.135-.137-.296-.205-.48-.205H17.73zm27.825 0c-.186 0-.346.068-.48.206-.136.137-.203.3-.203.49v10.173c0 1.032-.25 1.838-.748 2.422-.5.583-1.254.875-2.268.875-1.013 0-1.77-.292-2.268-.876-.498-.585-.746-1.39-.746-2.423V.953c0-.19-.068-.352-.204-.49-.135-.137-.295-.205-.48-.205h-3.32c-.185 0-.346.068-.48.206-.137.137-.204.3-.204.49V11.23c0 1.185.187 2.233.558 3.143.37.91.895 1.674 1.57 2.293.675.618 1.486 1.086 2.433 1.403.946.318 1.993.475 3.14.475 1.132 0 2.172-.157 3.118-.476.946-.318 1.76-.786 2.444-1.404.683-.62 1.21-1.382 1.583-2.293.37-.91.557-1.958.557-3.143V.953c0-.19-.068-.352-.202-.49-.135-.137-.296-.205-.482-.205h-3.32zm6.822 0c-.186 0-.347.068-.482.206-.136.137-.203.3-.203.49v2.73c0 .19.067.35.203.49.135.136.296.204.48.204h4.46v13.214c0 .19.068.354.203.49.137.138.296.207.483.207h3.32c.184 0 .345-.07.48-.208.134-.136.203-.3.203-.49V4.378h4.458c.187 0 .346-.068.482-.205.135-.138.202-.3.202-.49V.953c0-.19-.067-.352-.202-.49C66.33.327 66.17.26 65.984.26H52.38zm16.568 0c-.186 0-.346.068-.48.206-.136.137-.203.3-.203.49v2.73c0 .19.067.35.202.49.135.136.295.204.48.204h4.46v13.214c0 .19.068.354.204.49.135.138.296.207.482.207h3.32c.184 0 .344-.07.48-.208.135-.136.203-.3.203-.49V4.378h4.458c.186 0 .347-.068.482-.205.135-.138.202-.3.202-.49V.953c0-.19-.067-.352-.202-.49C82.9.327 82.74.26 82.553.26H68.948zm25.66 4.25c.405.257.726.54.962.85.136.154.275.31.42.463.14.156.34.233.594.233h3.37c.152 0 .287-.055.405-.167.117-.11.167-.245.15-.4-.033-.583-.236-1.197-.607-1.842-.37-.643-.887-1.235-1.545-1.777-.66-.54-1.462-.986-2.407-1.34C95.006.177 93.94 0 92.76 0c-1.216 0-2.304.184-3.267.554-.962.37-1.777.87-2.445 1.507-.667.636-1.187 1.378-1.557 2.23-.372.85-.576 1.747-.608 2.69-.035.74-.052 1.512-.052 2.318 0 .808.017 1.563.052 2.268.05.944.256 1.84.62 2.69.362.85.882 1.594 1.558 2.23.675.634 1.49 1.137 2.445 1.506.953.37 2.04.553 3.255.553 1.116 0 2.15-.162 3.104-.488.955-.327 1.786-.795 2.496-1.404.71-.61 1.266-1.353 1.672-2.228.405-.876.607-1.864.607-2.963V8.166c0-.19-.067-.352-.202-.49-.136-.137-.297-.206-.482-.206h-6.13c-.187 0-.347.07-.482.206-.134.138-.2.3-.2.49v2.73c0 .19.066.352.2.49.136.137.296.205.482.205h2.13c0 .516-.086.954-.255 1.314-.17.36-.397.654-.684.877-.288.224-.625.387-1.013.49-.388.103-.803.155-1.242.155-.557 0-1.034-.08-1.43-.245-.4-.163-.72-.382-.964-.657-.245-.274-.43-.593-.557-.953-.127-.36-.207-.74-.24-1.133-.018-.223-.035-.537-.052-.94-.016-.404-.024-.816-.024-1.236 0-.42.003-.828.013-1.223.008-.396.03-.704.063-.927.05-.396.135-.774.254-1.134.118-.36.3-.678.544-.953.245-.275.56-.494.95-.658.39-.162.87-.244 1.444-.244.828 0 1.445.13 1.85.387zm13.825-4.25c-.338 0-.595.094-.772.282-.177.19-.3.378-.367.568l-5.524 16.228c-.068.17-.102.3-.102.385 0 .156.056.29.166.4.11.113.24.17.39.17h3.193c.34 0 .58-.075.723-.22.144-.146.232-.288.266-.425l.71-2.138h6.74l.708 2.138c.034.137.122.28.266.424.143.145.383.22.723.22h3.192c.15 0 .282-.057.39-.17.11-.11.167-.244.167-.4 0-.084-.034-.213-.1-.384l-5.524-16.228c-.068-.19-.19-.378-.368-.568-.178-.188-.435-.282-.773-.282h-4.104zm2.053 5.073l2.05 6.184h-4.103l2.053-6.183zM122.096.26c-.186 0-.347.068-.48.206-.136.137-.205.3-.205.49V17.59c0 .19.07.354.205.49.134.138.295.207.48.207h3.32c.186 0 .345-.07.48-.208.136-.136.204-.3.204-.49V12.08h2.33l2.812 5.512c.084.155.198.31.34.465.145.154.386.232.724.232h3.445c.154 0 .283-.057.395-.17.11-.11.163-.244.163-.4 0-.084-.024-.178-.075-.28l-3.14-6.132c.96-.447 1.704-1.094 2.228-1.945.524-.85.786-1.92.786-3.206 0-.997-.165-1.868-.494-2.616-.33-.746-.802-1.36-1.42-1.84-.616-.48-1.362-.84-2.24-1.08-.88-.242-1.876-.362-2.99-.362h-6.866zM126.1 4.25h2.86c.71 0 1.297.137 1.763.412.464.275.697.774.697 1.495 0 .72-.233 1.22-.697 1.493-.466.275-1.053.413-1.762.413h-2.86V4.25zM138.595.258c-.185 0-.346.068-.48.206-.137.137-.204.3-.204.49v2.73c0 .19.067.35.203.49.135.136.296.204.48.204h4.46v13.214c0 .19.068.354.203.49.136.138.295.207.482.207h3.32c.184 0 .345-.07.48-.208.134-.136.202-.3.202-.49V4.378h4.46c.184 0 .345-.068.48-.205.136-.138.203-.3.203-.49V.953c0-.19-.067-.352-.202-.49-.136-.137-.297-.205-.482-.205h-13.604z" fill="#134155"/>
  </g>
</svg>